<?xml version="1.0" encoding="UTF-8" standalone="no"?>
<!-- Created with Inkscape (http://www.inkscape.org/) -->

<svg
   width="141.94905mm"
   height="64.824135mm"
   viewBox="0 0 141.94905 64.824135"
   version="1.1"
   id="svg1"
   xml:space="preserve"
   inkscape:version="1.3 (0e150ed6c4, 2023-07-21)"
   sodipodi:docname="drawing.svg"
   xmlns:inkscape="http://www.inkscape.org/namespaces/inkscape"
   xmlns:sodipodi="http://sodipodi.sourceforge.net/DTD/sodipodi-0.dtd"
   xmlns="http://www.w3.org/2000/svg"
   xmlns:svg="http://www.w3.org/2000/svg"><sodipodi:namedview
     id="namedview1"
     pagecolor="#ffffff"
     bordercolor="#000000"
     borderopacity="0.25"
     inkscape:showpageshadow="2"
     inkscape:pageopacity="0.0"
     inkscape:pagecheckerboard="0"
     inkscape:deskcolor="#d1d1d1"
     inkscape:document-units="mm"
     inkscape:zoom="1.8620677"
     inkscape:cx="293.75946"
     inkscape:cy="214.54644"
     inkscape:window-width="1920"
     inkscape:window-height="974"
     inkscape:window-x="-11"
     inkscape:window-y="-11"
     inkscape:window-maximized="1"
     inkscape:current-layer="layer1" /><defs
     id="defs1" /><g
     inkscape:label="Lager 1"
     inkscape:groupmode="layer"
     id="layer1"
     transform="translate(-27.068364,-120.10749)"><g
       id="g13"
       transform="translate(-2.8132612,79.976996)"><path
         style="fill:#fdfdfd"
         d="M 29.967175,72.541954 V 40.130497 h 70.908335 70.90833 V 72.541954 104.95341 H 100.87551 29.967175 Z"
         id="path18" /><path
         style="fill:#b0c6cf"
         d="M 32.613008,72.409662 V 44.099247 h 1.719791 1.719792 v 28.310415 28.310418 h -1.719792 -1.719791 z m 7.9375,24.870833 v -3.439583 h 1.943368 c 1.546684,0 2.032749,0.09877 2.38125,0.483854 0.535296,0.591496 0.573099,1.984965 0.06528,2.406415 -0.313236,0.259962 -0.267045,0.414784 0.289924,0.971753 0.509814,0.509814 0.623589,0.827165 0.493609,1.376813 -0.297989,1.260103 -1.044005,1.640333 -3.218371,1.640333 h -1.955063 z m 3.288393,1.965476 c 0.228675,-0.228676 0.415773,-0.458296 0.415773,-0.510268 0,-0.336804 -0.937969,-0.926042 -1.474107,-0.926042 -0.557965,0 -0.642559,0.121916 -0.642559,0.926042 0,0.804126 0.08459,0.926042 0.642559,0.926042 0.353408,0 0.829658,-0.187099 1.058334,-0.415774 z m -0.531908,-2.655242 c 0.230183,-0.08833 0.418515,-0.432779 0.418515,-0.765443 0,-0.587161 -0.443622,-0.926041 -1.212265,-0.926041 -0.252451,0 -0.375235,0.303017 -0.375235,0.926041 0,0.939529 0.264312,1.112599 1.168985,0.765443 z m 3.593515,0.689766 v -3.439583 h 1.984375 c 1.807986,0 1.984375,0.04704 1.984375,0.529166 0,0.458611 -0.176389,0.529167 -1.322917,0.529167 h -1.322917 v 0.926041 c 0,0.921142 0.0063,0.926042 1.190625,0.926042 1.014236,0 1.190625,0.0784 1.190625,0.529167 0,0.450771 -0.176389,0.529166 -1.190625,0.529166 -1.184325,0 -1.190625,0.0049 -1.190625,0.926042 v 0.926042 h 1.322917 c 1.146528,0 1.322917,0.07055 1.322917,0.529165 0,0.48213 -0.176389,0.52917 -1.984375,0.52917 h -1.984375 z m 4.938889,3.263195 c -0.268093,-0.26809 -0.210606,-1.411112 0.07097,-1.411112 0.136047,0 0.561029,0.119257 0.944403,0.265016 0.856552,0.32566 1.983238,0.07666 1.983238,-0.438296 0,-0.209274 -0.381958,-0.58332 -0.848796,-0.831213 -1.249955,-0.663733 -2.326204,-1.786507 -2.326204,-2.426764 0,-0.30885 0.29817,-0.859717 0.662601,-1.224147 0.578435,-0.578435 0.855705,-0.652527 2.182813,-0.583286 1.457738,0.07606 1.523795,0.110712 1.607443,0.843318 0.07112,0.62288 0.0055,0.732635 -0.355309,0.594185 -1.06486,-0.408625 -1.616869,-0.431687 -2.087449,-0.08721 -0.654335,0.478992 -0.400197,0.846088 1.02094,1.474725 1.237979,0.547616 1.731461,1.187399 1.731461,2.244781 0,1.072923 -1.129266,1.756393 -2.902001,1.756393 -0.829247,0 -1.587097,-0.0794 -1.68411,-0.17639 z m 5.644444,-3.263195 v -3.439583 h 0.79375 0.79375 v 3.439583 3.439585 h -0.79375 -0.79375 z m 2.910417,0 v -3.439583 h 0.779923 c 0.754033,0 0.782577,0.04599 0.859895,1.385485 l 0.07997,1.385485 1.014722,-1.385485 1.014722,-1.385485 h 3.681632 c 3.505244,0 3.681633,0.02535 3.681633,0.529166 0,0.428373 -0.176389,0.529167 -0.926042,0.529167 h -0.926042 v 2.910416 2.910419 h -0.79375 -0.79375 v -2.910419 -2.910416 h -1.038933 c -0.750238,0 -1.062704,-0.120178 -1.124479,-0.432487 -0.05857,-0.29611 -0.472714,0.06066 -1.313358,1.131419 l -1.227811,1.563906 1.285122,1.58056 c 0.706817,0.869308 1.289098,1.669857 1.293957,1.778997 0.0049,0.10914 -0.393384,0.19844 -0.884986,0.19844 -0.788385,0 -1.014662,-0.17584 -1.918229,-1.490628 l -1.024408,-1.490625 -0.07935,1.490625 c -0.07752,1.456328 -0.09731,1.490628 -0.859896,1.490628 h -0.780546 z m 11.90625,0 v -3.439583 h 0.890222 c 0.829753,0 0.990963,0.157258 2.373292,2.315104 l 1.483069,2.315104 0.008,-2.315104 0.008,-2.315104 h 0.79375 0.79375 v 3.439583 3.439585 h -0.871994 c -0.805341,0 -0.986857,-0.17696 -2.37469,-2.315106 l -1.502696,-2.315104 -0.0066,2.315104 -0.0066,2.315106 h -0.79375 -0.79375 z m 7.672916,0 v -3.439583 h 0.79375 0.79375 v 3.439583 3.439585 h -0.79375 -0.79375 z m 2.910417,0 v -3.439583 h 0.892684 c 0.825573,0 0.99962,0.163051 2.315104,2.168851 l 1.42242,2.168851 0.07685,-2.168851 0.07685,-2.168851 h 0.783049 0.78305 v 3.439583 3.439585 l -0.859896,-0.005 c -0.791611,-0.005 -0.975456,-0.18861 -2.315104,-2.3151 l -1.455209,-2.30992 -0.07645,2.315104 -0.07645,2.315106 H 83.66729 82.883841 Z m 8.831962,2.934335 c -1.943561,-1.185138 -1.818822,-4.590206 0.214095,-5.844272 0.675545,-0.41673 1.238831,-0.523934 2.463318,-0.468815 1.520053,0.06842 1.591096,0.102785 1.672154,0.808751 0.07936,0.691141 0.03795,0.724618 -0.661458,0.534845 -1.351843,-0.366798 -2.266646,-0.191123 -2.912067,0.559222 -0.986352,1.146703 -0.746251,2.843688 0.493016,3.484537 1.006387,0.520423 1.80523,0.267647 1.80523,-0.571225 0,-0.510148 -0.137178,-0.643628 -0.661459,-0.643628 -0.485069,0 -0.661458,-0.141111 -0.661458,-0.529167 0,-0.465025 0.176389,-0.529167 1.455208,-0.529167 h 1.455209 v 1.688933 c 0,1.527826 -0.05679,1.704156 -0.595313,1.848466 -1.240264,0.33238 -3.239161,0.166 -4.066475,-0.33848 z m 5.235052,0.28569 c 0.04851,-0.12076 0.623975,-1.673094 1.278819,-3.449634 l 1.190625,-3.230072 0.919341,0.07619 c 1.00992,0.0837 0.77167,-0.341943 2.67135,4.772548 l 0.76162,2.050528 h -0.89836 c -0.78305,0 -0.92074,-0.10189 -1.0727,-0.793757 -0.16432,-0.748121 -0.24769,-0.79375 -1.45035,-0.79375 -1.179911,0 -1.296849,0.05978 -1.552713,0.79375 -0.228102,0.654337 -0.422407,0.793757 -1.106265,0.793757 -0.456259,0 -0.789874,-0.0988 -0.741367,-0.21956 z m 4.039445,-3.021588 c -0.102,-0.327422 -0.30245,-0.892968 -0.44544,-1.256771 l -0.25999,-0.661458 -0.346011,0.926042 c -0.523015,1.399765 -0.472718,1.5875 0.425311,1.5875 0.7202,0 0.7907,-0.06703 0.62613,-0.595313 z m 3.58937,-0.198437 v -3.439583 h 1.85209 c 1.4993,0 1.95287,0.100793 2.38125,0.529166 0.75305,0.753048 0.70802,2.221633 -0.0865,2.820931 l -0.61565,0.464384 1.01138,1.333905 c 0.55626,0.733648 1.0119,1.423202 1.01253,1.532342 6.2e-4,0.10914 -0.34488,0.19844 -0.7678,0.19844 -0.6196,0 -0.9535,-0.25691 -1.71935,-1.322919 -0.52273,-0.727604 -1.12921,-1.322916 -1.34773,-1.322916 -0.30039,0 -0.39732,0.322728 -0.39732,1.322916 0,1.234719 -0.0441,1.322919 -0.66146,1.322919 h -0.66146 z m 2.66323,-0.538476 c 1.00647,-0.538646 0.35111,-1.842774 -0.92604,-1.842774 -0.30693,0 -0.41427,0.274232 -0.41427,1.058333 0,1.13014 0.33166,1.324252 1.34031,0.784441 z m 6.77358,3.801671 c -0.097,-0.097 -0.17639,-0.46223 -0.17639,-0.811581 0,-0.480957 0.11243,-0.60179 0.46302,-0.497633 1.4032,0.41687 1.82014,0.424437 2.31511,0.04202 0.52538,-0.405926 0.5247,-0.412633 -0.0955,-0.93784 -0.34355,-0.290945 -0.77264,-0.528991 -0.95355,-0.528991 -0.66552,0 -1.72912,-1.282404 -1.72912,-2.084829 0,-1.248271 1.07227,-1.925927 2.89482,-1.82947 1.39771,0.07397 1.47508,0.115201 1.55686,0.829592 0.0783,0.683774 0.0304,0.732393 -0.52917,0.537669 -0.69986,-0.243536 -2.00482,-0.252593 -2.24185,-0.01556 -0.33277,0.332767 0.20073,1.014347 1.08229,1.382684 1.9646,0.820862 2.52977,2.26125 1.35012,3.440909 -0.54223,0.54222 -0.9062,0.64943 -2.20486,0.64943 -0.85549,0 -1.63481,-0.0794 -1.73182,-0.17639 z m 7.00692,-0.551216 c -0.44449,-1.118195 -2.15623,-5.935003 -2.15623,-6.067597 0,-0.06462 0.37768,-0.08018 0.8393,-0.03458 0.80767,0.07979 0.87017,0.175696 1.65901,2.545761 l 0.81973,2.462852 0.80384,-2.462852 c 0.77624,-2.378321 0.8328,-2.465696 1.64778,-2.545725 l 0.84395,-0.08287 -0.75605,2.067248 c -0.41583,1.136986 -0.96096,2.692326 -1.2114,3.45631 -0.4271,1.302899 -0.50948,1.389069 -1.32803,1.389069 -0.70551,0 -0.92808,-0.13938 -1.1619,-0.72761 z m 4.98752,-2.711979 v -3.439583 h 2.11667 c 1.94028,0 2.11667,0.0441 2.11667,0.529166 0,0.458611 -0.17639,0.529167 -1.32292,0.529167 h -1.32292 v 0.926041 c 0,0.921142 0.006,0.926042 1.19063,0.926042 1.01423,0 1.19062,0.0784 1.19062,0.529167 0,0.450771 -0.17639,0.529166 -1.19062,0.529166 -1.18433,0 -1.19063,0.0049 -1.19063,0.926042 v 0.926042 h 1.32292 c 1.14653,0 1.32292,0.07055 1.32292,0.529165 0,0.48507 -0.17639,0.52917 -2.11667,0.52917 h -2.11667 z m 5.29167,-0.01113 v -3.450712 l 2.02311,0.07728 c 1.83944,0.07026 2.07077,0.141241 2.54801,0.781847 0.59626,0.800371 0.48024,1.796145 -0.29633,2.543304 -0.4545,0.437278 -0.43175,0.519683 0.54575,1.977645 l 1.02001,1.521361 h -0.9291 c -0.76834,0 -1.0014,-0.13979 -1.34685,-0.807828 -0.48096,-0.930069 -1.32691,-1.838012 -1.71252,-1.838012 -0.14552,0 -0.26458,0.595312 -0.26458,1.322916 0,1.293524 -0.0176,1.322924 -0.79375,1.322924 h -0.79375 z m 3.02381,-0.669227 c 0.22868,-0.228676 0.41577,-0.517828 0.41577,-0.64256 0,-0.410292 -0.82162,-1.058333 -1.34181,-1.058333 -0.41893,0 -0.51027,0.189455 -0.51027,1.058333 0,0.868879 0.0913,1.058333 0.51027,1.058333 0.28065,0 0.69736,-0.187098 0.92604,-0.415773 z m 3.32619,0.680357 v -3.439583 h 0.79375 0.79375 v 3.439583 3.439585 h -0.79375 -0.79375 z m 3.54542,2.54 c -0.81328,-0.813277 -0.89959,-1.044723 -0.89959,-2.412378 0,-1.404508 0.0735,-1.586321 1.02721,-2.54 0.94581,-0.945812 1.14326,-1.027205 2.4919,-1.027205 1.87846,0 2.30173,0.175497 2.30173,0.954349 0,0.717972 -0.1179,0.748993 -1.29159,0.339843 -0.98231,-0.342437 -2.26939,0.06054 -2.68727,0.841368 -0.42423,0.79268 -0.30346,2.501909 0.20854,2.951512 1.0952,0.961714 2.4474,0.839838 2.4474,-0.220588 0,-0.498972 -0.14018,-0.633151 -0.66146,-0.633151 -0.48507,0 -0.66146,-0.141111 -0.66146,-0.529167 0,-0.465025 0.17639,-0.529167 1.45521,-0.529167 h 1.45521 v 1.578191 c 0,1.907308 -0.27307,2.125978 -2.6549,2.125978 -1.50248,0 -1.70241,-0.0711 -2.53093,-0.899585 z m 6.24416,-2.54 v -3.439583 h 2.11667 c 1.94028,0 2.11667,0.0441 2.11667,0.529166 0,0.458611 -0.17639,0.529167 -1.32292,0.529167 h -1.32292 v 0.926041 c 0,0.921142 0.006,0.926042 1.19063,0.926042 1.01423,0 1.19062,0.0784 1.19062,0.529167 0,0.450771 -0.17639,0.529166 -1.19062,0.529166 -1.18433,0 -1.19063,0.0049 -1.19063,0.926042 v 0.926042 h 1.32292 c 1.14653,0 1.32292,0.07055 1.32292,0.529165 0,0.48507 -0.17639,0.52917 -2.11667,0.52917 h -2.11667 z m 7.9816,3.220025 c 0.0485,-0.12076 0.62398,-1.673094 1.27882,-3.449634 l 1.19063,-3.230072 0.91933,0.07619 c 1.00992,0.0837 0.77168,-0.341943 2.67135,4.772548 l 0.76163,2.050528 h -0.89836 c -0.78306,0 -0.92075,-0.10189 -1.0727,-0.793757 -0.16432,-0.748121 -0.24769,-0.79375 -1.45035,-0.79375 -1.17991,0 -1.29685,0.05978 -1.55272,0.79375 -0.2281,0.654337 -0.4224,0.793757 -1.10626,0.793757 -0.45626,0 -0.78988,-0.0988 -0.74137,-0.21956 z m 4.03944,-3.021588 c -0.10199,-0.327422 -0.30244,-0.892968 -0.44543,-1.256771 l -0.25999,-0.661458 -0.34601,0.926042 c -0.52302,1.399765 -0.47272,1.5875 0.42531,1.5875 0.72019,0 0.79069,-0.06703 0.62612,-0.595313 z m 3.58938,-0.198437 v -3.439583 h 1.85208 c 1.49931,0 1.95288,0.100793 2.38125,0.529166 0.63993,0.639926 0.67132,1.266808 0.104,2.076771 -0.39769,0.567777 -0.38913,0.645369 0.13229,1.200403 0.73667,0.784146 0.70469,1.626734 -0.092,2.423398 -0.56662,0.56661 -0.88714,0.64943 -2.51354,0.64943 h -1.86411 z m 2.92781,2.107357 c 0.99914,-0.534723 0.29939,-1.578191 -1.05833,-1.578191 -0.44825,0 -0.54656,0.166566 -0.54656,0.926042 0,0.759476 0.0983,0.926042 0.54656,0.926042 0.30061,0 0.77686,-0.123252 1.05833,-0.273893 z m -0.26458,-2.910416 c 0.28147,-0.150641 0.51177,-0.444108 0.51177,-0.65215 0,-0.417035 -0.79031,-0.926041 -1.43781,-0.926041 -0.29707,0 -0.41427,0.262001 -0.41427,0.926041 0,0.99197 0.36945,1.171735 1.34031,0.65215 z M 45.180716,85.394012 c -0.727604,-0.118251 -2.067057,-0.424889 -2.976562,-0.681417 l -1.653646,-0.466414 v -3.24431 -3.244309 l 1.811693,0.903738 c 2.34738,1.170958 5.229734,1.785031 7.30506,1.556312 2.813092,-0.310028 3.84783,-1.037335 3.84783,-2.704601 0,-1.530742 -1.032094,-2.307433 -5.020192,-3.777891 -4.201711,-1.54922 -6.175772,-2.881057 -7.221739,-4.872282 -0.456635,-0.869302 -0.571191,-1.55393 -0.579725,-3.464634 -0.01142,-2.556675 0.345334,-3.597675 1.842824,-5.377341 0.867666,-1.031163 3.887247,-2.55587 5.882275,-2.970196 1.869411,-0.388238 7.566342,-0.18212 9.462182,0.342347 l 1.322917,0.365972 0.07463,3.101709 0.07463,3.101709 -1.058744,-0.540131 c -2.350256,-1.199011 -6.602552,-1.730129 -8.399846,-1.049152 -1.966986,0.74527 -2.511933,2.431668 -1.264741,3.913872 0.467429,0.555507 1.449779,1.09436 3.241146,1.77788 6.087907,2.322921 7.810874,3.647976 8.694126,6.686257 1.30428,4.486565 -1.417752,8.583624 -6.785152,10.212655 -1.666967,0.505932 -6.611084,0.753298 -8.598958,0.430227 z m 24.822029,-0.115877 c -2.304011,-0.586991 -3.939856,-1.879471 -5.068893,-4.004931 -0.625481,-1.177495 -0.702751,-1.613761 -0.702932,-3.96875 -1.83e-4,-2.373789 0.07737,-2.803806 0.754223,-4.182237 0.8862,-1.804762 2.638601,-3.320049 4.755579,-4.112112 1.083329,-0.405325 9.770949,-1.892109 11.056028,-1.892109 0.326594,0 0.293559,-1.069139 -0.06623,-2.143331 -0.679046,-2.027389 -2.152494,-2.883752 -4.961749,-2.883752 -2.499759,0 -4.25572,0.448057 -6.841704,1.745754 l -2.182812,1.095378 V 61.952707 58.97337 l 1.068204,-0.427411 c 3.781098,-1.512895 9.674687,-2.198632 12.72276,-1.480331 3.578598,0.843323 5.87935,2.935239 7.004497,6.368711 0.408183,1.245602 0.483654,2.751144 0.572608,11.422719 l 0.102459,9.988021 h -3.591514 -3.591515 v -1.827585 -1.827585 l -1.653645,1.649947 c -1.163455,1.160853 -2.045799,1.785907 -2.976563,2.108603 -1.766546,0.612462 -4.696347,0.763409 -6.398804,0.329676 z m 7.267198,-5.606467 c 2.285689,-0.954787 3.525054,-2.95308 3.705584,-5.974705 0.119733,-2.004034 0.115729,-2.019223 -0.506854,-1.922723 -0.345147,0.0535 -1.912673,0.278123 -3.483392,0.499167 -4.39821,0.618953 -5.820853,1.626736 -5.857434,4.149337 -0.04118,2.839504 3.119667,4.511465 6.142096,3.248924 z m 72.534787,5.622452 c -2.63176,-0.746754 -4.45227,-2.273125 -5.4439,-4.564325 -0.69152,-1.597773 -0.63203,-5.428237 0.1099,-7.075928 1.07866,-2.395524 2.64005,-3.79122 5.26447,-4.7058 1.19218,-0.41546 9.46569,-1.830071 10.70337,-1.830071 0.4258,0 0.24033,-1.669396 -0.3123,-2.810978 -0.39574,-0.817487 -0.85355,-1.275296 -1.67104,-1.671035 -2.3895,-1.156739 -7.25111,-0.442695 -10.46971,1.537729 -0.73977,0.455189 -1.40279,0.827617 -1.47336,0.827617 -0.0706,0 -0.12832,-1.316274 -0.12832,-2.925054 v -2.925054 l 1.42232,-0.651159 c 2.18537,-1.000494 5.74718,-1.688563 8.7747,-1.69509 5.68953,-0.01226 8.77008,1.766738 10.50578,6.06703 0.57238,1.418099 0.59526,1.815498 0.67475,11.720473 l 0.0823,10.252604 h -3.58616 -3.58616 v -1.904207 -1.904207 l -0.78646,1.069423 c -0.87718,1.19278 -2.25467,2.229119 -3.83907,2.888272 -1.38826,0.577556 -4.70126,0.73668 -6.24108,0.29976 z m 8.12244,-6.157069 c 1.80745,-1.117458 2.74417,-2.972587 2.74417,-5.434685 0,-2.143926 0.2578,-2.055691 -4.16797,-1.42654 -3.02247,0.429664 -3.91395,0.790826 -4.92864,1.996717 -0.85976,1.021765 -0.94853,2.874168 -0.19682,4.106876 1.14892,1.884068 4.16328,2.232775 6.54926,0.757632 z M 95.054674,64.472163 V 44.099247 h 3.70165 3.701646 l 0.0687,12.885734 0.0687,12.885733 4.49792,-6.257926 4.49791,-6.257925 4.45382,-0.01322 c 2.54625,-0.0076 4.41605,0.08914 4.36563,0.225784 -0.0485,0.131455 -2.39088,3.039674 -5.20527,6.462709 -2.81439,3.423035 -5.11535,6.299215 -5.11326,6.391512 0.002,0.0923 2.4326,3.2265 5.40112,6.964895 2.96852,3.738395 5.48487,6.94591 5.59189,7.127811 0.1527,0.25953 -0.79132,0.328038 -4.38508,0.318227 l -4.57968,-0.0125 -4.7625,-6.634151 -4.7625,-6.634151 -0.0707,6.646654 -0.0707,6.646655 h -3.699622 -3.699624 z m 29.633336,6.614583 V 57.328413 h 3.83646 3.83645 l 0.002,2.315104 0.002,2.315104 0.77571,-1.352452 c 1.41126,-2.460535 3.29545,-3.585361 6.09849,-3.640686 2.74283,-0.05414 2.64583,-0.193237 2.64583,3.794209 0,1.896338 -0.045,3.447887 -0.1,3.447887 -0.055,0 -0.52741,-0.178593 -1.04983,-0.396875 -1.33983,-0.559816 -3.68026,-0.508718 -4.88,0.106543 -1.2941,0.663655 -2.01551,1.468106 -2.75466,3.071753 -0.58705,1.273659 -0.61102,1.607599 -0.68831,9.58785 l -0.0801,8.268229 H 128.50953 124.687 Z M 68.331471,51.834132 c -0.952864,-0.952864 -1.058047,-1.189874 -1.058047,-2.38411 0,-1.088348 0.133315,-1.468777 0.743676,-2.122171 2.078253,-2.224776 6.024534,-1.398425 6.543951,1.370304 0.239555,1.276942 -0.0039,2.115265 -0.908287,3.127434 -0.674642,0.755055 -0.936563,0.854762 -2.508275,0.954841 -1.750757,0.11148 -1.757512,0.109208 -2.813018,-0.946298 z m 12.147956,0.39311 c -2.268214,-1.528549 -2.066676,-4.654785 0.371439,-5.761726 1.393297,-0.632578 2.143486,-0.632578 3.536783,0 2.220873,1.00831 2.615866,3.809065 0.775105,5.495997 -0.825508,0.756521 -1.131995,0.868983 -2.368192,0.868983 -1.039964,0 -1.659526,-0.161438 -2.315135,-0.603254 z"
         id="path17" /><path
         style="fill:#febf00"
         d="M 32.613008,72.409662 V 44.099247 h 1.719791 1.719792 v 28.310415 28.310418 h -1.719792 -1.719791 z m 8.202083,24.870833 v -3.439583 h 1.66092 c 1.980828,0 2.836997,0.471239 2.836997,1.561495 0,0.405757 -0.238363,0.953455 -0.529695,1.217107 -0.528541,0.478324 -0.528397,0.480009 0.06615,0.774695 0.423319,0.209817 0.619093,0.572062 0.676149,1.251088 0.120258,1.431203 -0.818511,2.074783 -3.026407,2.074783 h -1.68411 z m 3.193406,1.962197 c 0.499819,-0.602245 -0.0093,-1.281358 -1.037276,-1.383648 -0.794188,-0.07903 -0.833213,-0.03875 -0.833213,0.859895 0,0.862258 0.06504,0.942806 0.761353,0.942806 0.418744,0 0.917856,-0.188574 1.109136,-0.419053 z m -0.264583,-2.910417 c 0.472569,-0.56941 0.01134,-1.27501 -0.904988,-1.384459 -0.642797,-0.07678 -0.700918,-0.0055 -0.700918,0.859896 0,0.817176 0.08429,0.943616 0.629061,0.943616 0.345984,0 0.785564,-0.188574 0.976845,-0.419053 z m 3.156594,0.94822 v -3.439583 h 1.984375 c 1.807986,0 1.984375,0.04704 1.984375,0.529166 0,0.458611 -0.176389,0.529167 -1.322917,0.529167 h -1.322917 v 0.926041 c 0,0.921142 0.0063,0.926042 1.190625,0.926042 1.014236,0 1.190625,0.0784 1.190625,0.529167 0,0.450771 -0.176389,0.529166 -1.190625,0.529166 -1.184325,0 -1.190625,0.0049 -1.190625,0.926042 v 0.926042 h 1.322917 c 1.146528,0 1.322917,0.07055 1.322917,0.529165 0,0.48213 -0.176389,0.52917 -1.984375,0.52917 h -1.984375 z m 5.225521,3.153805 c -0.254662,-0.14832 -0.463021,-0.51463 -0.463021,-0.81401 0,-0.421983 0.104069,-0.497147 0.463021,-0.334418 0.254661,0.11545 0.93927,0.217486 1.521354,0.226745 0.902973,0.01436 1.070772,-0.07077 1.143069,-0.579911 0.06871,-0.483889 -0.132151,-0.689714 -1.062081,-1.088329 -1.24715,-0.534591 -1.638052,-0.905825 -1.919127,-1.822568 -0.290952,-0.948958 1.097293,-2.180897 2.457605,-2.180897 1.474056,0 1.894075,0.217908 1.894075,0.982656 0,0.529007 -0.09271,0.621807 -0.46302,0.463439 -1.357902,-0.58073 -2.674461,-0.30278 -2.36655,0.499623 0.08687,0.226393 0.638265,0.656659 1.22531,0.956147 2.790518,1.423617 2.204884,3.977553 -0.909281,3.965353 -0.582084,-0.002 -1.266693,-0.1255 -1.521354,-0.27383 z m 5.357812,-3.153805 v -3.439583 h 0.661458 0.661459 v 3.439583 3.439585 h -0.661459 -0.661458 z m 3.175,0 v -3.439583 h 0.648255 c 0.601851,0 0.653934,0.106701 0.727604,1.490625 l 0.07935,1.490626 1.024408,-1.490626 c 0.844314,-1.228569 1.158287,-1.490625 1.785938,-1.490625 0.418841,0 0.761529,0.0452 0.761529,0.100457 0,0.05525 -0.534902,0.789305 -1.188672,1.631231 l -1.188672,1.530775 0.659505,0.88231 c 0.362728,0.48527 0.971294,1.299028 1.352367,1.808351 l 0.692862,0.926044 -0.891299,-0.01 c -0.780072,-0.009 -1.023371,-0.19864 -1.949632,-1.521355 L 62.114049,97.67737 62.0347,99.198724 c -0.07388,1.416536 -0.124014,1.521356 -0.727604,1.521356 h -0.648255 z m 7.408333,0.529166 v -2.910416 h -0.926041 c -0.749653,0 -0.926042,-0.100794 -0.926042,-0.529167 0,-0.493889 0.176389,-0.529166 2.645833,-0.529166 2.469445,0 2.645834,0.03528 2.645834,0.529166 0,0.440972 -0.176389,0.529167 -1.058334,0.529167 h -1.058333 v 2.910416 2.910419 h -0.661458 -0.661459 z m 4.233334,-0.529166 v -3.439583 l 0.859895,0.0052 c 0.791611,0.0048 0.975456,0.188617 2.315105,2.315104 l 1.455208,2.309921 0.07645,-2.315104 c 0.07471,-2.262581 0.09122,-2.315104 0.727604,-2.315104 h 0.651157 v 3.439583 3.439588 l -0.727604,-0.0111 c -0.625754,-0.01 -0.940563,-0.34997 -2.248958,-2.431811 l -1.521354,-2.420686 v 2.431811 2.431816 h -0.79375 -0.79375 z m 7.672916,0 v -3.439583 h 0.79375 0.79375 v 3.439583 3.439585 h -0.79375 -0.79375 z m 3.175,0 v -3.439583 l 0.727604,0.0041 c 0.622739,0.0036 0.951776,0.34675 2.283004,2.38125 0.85547,1.307405 1.576748,2.377099 1.60284,2.377099 0.02609,0 -0.0038,-1.071562 -0.06641,-2.38125 l -0.113848,-2.381249 h 0.826113 0.826114 v 3.439583 3.439585 h -0.778375 c -0.690181,0 -0.959426,-0.27731 -2.376279,-2.447398 l -1.597904,-2.447396 -0.005,2.447396 c -0.0049,2.432838 -0.0089,2.447398 -0.66643,2.447398 h -0.661458 z m 9.098523,3.180275 c -0.749297,-0.30275 -1.614507,-1.439624 -1.825009,-2.398034 -0.413403,-1.882212 1.132897,-3.925984 3.141671,-4.152402 1.787939,-0.201526 2.549398,0.06429 2.549398,0.889967 0,0.548347 -0.09222,0.64676 -0.46302,0.494108 -2.116936,-0.871502 -3.770313,0.0047 -3.770313,1.998112 0,1.42827 0.952776,2.438674 2.187221,2.319513 0.711791,-0.06871 0.86955,-0.204796 0.939207,-0.810185 0.07522,-0.653764 0.0014,-0.727604 -0.727604,-0.727604 -0.634935,0 -0.811324,-0.115046 -0.811324,-0.529167 0,-0.465025 0.176389,-0.529167 1.455208,-0.529167 h 1.455209 v 1.594049 c 0,1.46765 -0.05381,1.61451 -0.678683,1.85208 -0.818064,0.31103 -2.680725,0.31034 -3.451961,-0.001 z m 5.219779,-1.129755 c 0.303736,-0.763984 0.881983,-2.282031 1.284994,-3.373437 0.673649,-1.824332 0.797527,-1.990914 1.53596,-2.06545 0.74968,-0.07567 0.83843,0.01251 1.33144,1.322917 0.29052,0.772195 0.83737,2.221839 1.21522,3.22143 0.84529,2.236185 0.84553,2.283605 0.0118,2.283605 -0.51237,0 -0.74196,-0.19144 -0.95193,-0.793752 -0.25723,-0.737898 -0.36893,-0.79375 -1.5875,-0.79375 -1.218559,0 -1.330263,0.05585 -1.587496,0.79375 -0.221294,0.634802 -0.429691,0.793752 -1.040709,0.793752 h -0.764006 z m 3.567644,-1.90656 c -0.24302,-0.968248 -0.69078,-2.083751 -0.7894,-1.966592 -0.0476,0.05656 -0.275174,0.668387 -0.505702,1.359611 l -0.419141,1.256771 h 0.938663 c 0.86463,0 0.9258,-0.05125 0.77558,-0.64979 z m 3.5453,-0.14396 v -3.439583 h 1.68411 c 1.30314,0 1.84182,0.12405 2.38125,0.54837 0.9109,0.716513 0.93946,1.921667 0.064,2.701446 l -0.63313,0.563942 0.59811,0.8051 c 0.32897,0.442805 0.80616,1.132522 1.06044,1.532704 l 0.46231,0.727606 h -0.8026 c -0.633,0 -0.92445,-0.19717 -1.37926,-0.933061 -1.34255,-2.172287 -2.11233,-2.31436 -2.11233,-0.389858 0,1.234719 -0.0441,1.322919 -0.66146,1.322919 h -0.66146 z m 2.86546,-0.495782 c 0.19989,-0.126715 0.31419,-0.553602 0.26458,-0.988136 -0.0739,-0.647714 -0.2192,-0.777755 -0.94722,-0.84795 -0.84266,-0.08125 -0.8599,-0.06136 -0.8599,0.992188 0,0.939726 0.075,1.074586 0.59531,1.071045 0.32743,-0.0022 0.75368,-0.104444 0.94723,-0.227147 z m 6.72569,3.760137 c -0.1819,-0.0734 -0.33073,-0.43393 -0.33073,-0.80117 0,-0.536072 0.0913,-0.628105 0.46302,-0.4668 0.77287,0.335367 2.02848,0.41587 2.41981,0.155145 0.56537,-0.376689 0.16644,-1.011604 -1.01399,-1.613813 -2.85526,-1.456645 -2.08261,-4.158554 1.1226,-3.925641 0.99114,0.07202 1.11857,0.158573 1.19356,0.810679 0.0793,0.689778 0.0476,0.713466 -0.5758,0.429441 -0.85372,-0.388979 -2.02194,-0.100413 -2.02093,0.499199 4.6e-4,0.276561 0.49805,0.720002 1.25615,1.119438 2.00679,1.057372 2.40826,2.771107 0.83926,3.582472 -0.71487,0.36967 -2.6569,0.49191 -3.35295,0.21105 z m 7.01088,-0.27361 c -0.0747,-0.26246 -0.61893,-1.816657 -1.20934,-3.453766 l -1.07348,-2.976562 h 0.75585 c 0.7225,0 0.79497,0.117376 1.64277,2.66078 l 0.88693,2.660781 0.87214,-2.660781 c 0.78798,-2.404009 0.93432,-2.66078 1.51638,-2.66078 0.35432,0 0.63603,0.148828 0.62603,0.330729 -0.01,0.181901 -0.51754,1.699948 -1.12784,3.373437 -1.06932,2.932172 -1.1395,3.045622 -1.93161,3.123042 -0.60878,0.0595 -0.85721,-0.0434 -0.95783,-0.39688 z m 5.09381,-2.990745 v -3.439583 h 1.85208 c 1.67569,0 1.85208,0.0504 1.85208,0.529166 0,0.450772 -0.17639,0.529167 -1.19062,0.529167 -1.18433,0 -1.19063,0.0049 -1.19063,0.926041 0,0.921142 0.006,0.926042 1.19063,0.926042 1.01423,0 1.19062,0.0784 1.19062,0.529167 0,0.450771 -0.17639,0.529166 -1.19062,0.529166 -1.18433,0 -1.19063,0.0049 -1.19063,0.926042 v 0.926042 h 1.32292 c 1.14653,0 1.32292,0.07055 1.32292,0.529165 0,0.48213 -0.17639,0.52917 -1.98438,0.52917 h -1.98437 z m 5.02708,0 v -3.439583 h 1.79321 c 2.29845,0 2.96929,0.419035 2.96929,1.854734 0,0.769814 -0.15595,1.148615 -0.61565,1.495363 l -0.61565,0.464384 1.01139,1.333905 c 0.55626,0.733648 1.0119,1.423202 1.01252,1.532342 6.3e-4,0.10914 -0.32628,0.19625 -0.72646,0.19357 -0.57665,-0.004 -0.89229,-0.26414 -1.52136,-1.254514 -0.43656,-0.6873 -1.00211,-1.289151 -1.25677,-1.337445 -0.39167,-0.07428 -0.46302,0.119051 -0.46302,1.25451 0,1.315079 -0.0161,1.342319 -0.79375,1.342319 h -0.79375 z m 3.27925,-0.859896 c 0.39966,-0.638279 -0.0893,-1.365104 -0.99083,-1.472783 -0.65861,-0.07867 -0.70092,-0.01771 -0.70092,1.009762 0,1.027476 0.0423,1.088428 0.70092,1.009762 0.3855,-0.04605 0.83138,-0.29208 0.99083,-0.546741 z m 3.07075,0.859896 v -3.439583 h 0.66146 0.66146 v 3.439583 3.439585 h -0.66146 -0.66146 z m 4.17051,3.025405 c -2.14097,-1.161678 -1.95478,-4.887949 0.30257,-6.055268 0.80038,-0.413895 2.53996,-0.544802 3.31049,-0.249121 0.23018,0.08833 0.41851,0.428975 0.41851,0.756991 0,0.56792 -0.0513,0.582708 -1.07386,0.309763 -1.29947,-0.34685 -2.29751,0.09454 -2.86006,1.264887 -0.74768,1.55549 0.50789,3.512253 2.1085,3.286023 0.46792,-0.06614 0.65681,-0.281001 0.71852,-0.817326 0.0721,-0.626492 -0.0106,-0.727604 -0.59531,-0.727604 -0.50265,0 -0.67904,-0.137459 -0.67904,-0.529167 0,-0.458611 0.17639,-0.529167 1.32292,-0.529167 h 1.32292 v 1.594049 c 0,1.46765 -0.0538,1.61451 -0.67869,1.85208 -0.98608,0.37491 -2.78157,0.29741 -3.61747,-0.15614 z m 5.88366,-3.025405 v -3.439583 h 1.85208 c 1.67569,0 1.85208,0.0504 1.85208,0.529166 0,0.450772 -0.17639,0.529167 -1.19062,0.529167 -1.18433,0 -1.19063,0.0049 -1.19063,0.926041 0,0.921142 0.006,0.926042 1.19063,0.926042 1.01423,0 1.19062,0.0784 1.19062,0.529167 0,0.450771 -0.17639,0.529166 -1.19062,0.529166 -1.18433,0 -1.19063,0.0049 -1.19063,0.926042 v 0.926042 h 1.32292 c 1.14653,0 1.32292,0.07055 1.32292,0.529165 0,0.48213 -0.17639,0.52917 -1.98438,0.52917 h -1.98437 z m 8.23288,2.05052 c 0.30374,-0.763984 0.88198,-2.282031 1.285,-3.373437 0.67365,-1.824332 0.79752,-1.990914 1.53596,-2.06545 0.74968,-0.07567 0.83842,0.01251 1.33143,1.322917 0.29052,0.772195 0.83737,2.221839 1.21522,3.22143 0.84529,2.236185 0.84554,2.283605 0.0118,2.283605 -0.51237,0 -0.74196,-0.19144 -0.95193,-0.793752 -0.25723,-0.737898 -0.36894,-0.79375 -1.5875,-0.79375 -1.21856,0 -1.33027,0.05585 -1.5875,0.79375 -0.22129,0.634802 -0.42969,0.793752 -1.04071,0.793752 h -0.764 z m 3.56765,-1.90656 c -0.24302,-0.968248 -0.69079,-2.083751 -0.7894,-1.966592 -0.0476,0.05656 -0.27518,0.668387 -0.50571,1.359611 l -0.41914,1.256771 h 0.93867 c 0.86463,0 0.9258,-0.05125 0.77558,-0.64979 z m 3.5453,-0.14396 v -3.439583 h 1.66092 c 2.03854,0 2.837,0.463768 2.837,1.647815 0,0.453232 -0.19705,1.041794 -0.43789,1.307913 -0.25218,0.27866 -0.31087,0.483855 -0.13839,0.483855 0.54655,0 1.14049,1.223452 0.95422,1.965595 -0.24201,0.96427 -1.37462,1.47399 -3.27522,1.47399 h -1.60064 z m 3.12208,2.06375 c 0.77857,-0.778563 0.20741,-1.534584 -1.15934,-1.534584 -0.55484,0 -0.63982,0.123005 -0.63982,0.926042 0,0.837847 0.0705,0.926042 0.74083,0.926042 0.40746,0 0.88371,-0.142875 1.05833,-0.3175 z m -0.19326,-3.01197 c 0.47257,-0.56941 0.0113,-1.27501 -0.90499,-1.384459 -0.64279,-0.07678 -0.70091,-0.0055 -0.70091,0.859896 0,0.817176 0.0843,0.943616 0.62906,0.943616 0.34598,0 0.78556,-0.188574 0.97684,-0.419053 z M 46.503633,85.336727 C 44.359671,85.164728 42.514117,84.810989 41.24674,84.329133 l -0.696232,-0.264707 v -3.049257 c 0,-1.677091 0.05597,-3.049257 0.124378,-3.049257 0.06841,0 0.812549,0.347816 1.653646,0.772924 2.924876,1.478292 6.319632,1.975354 8.956422,1.311403 1.353191,-0.340737 2.49472,-1.499613 2.49472,-2.53263 0,-1.098173 -1.693508,-2.533504 -3.96875,-3.363708 -3.726522,-1.359757 -6.775103,-2.991907 -7.64877,-4.095001 -1.541527,-1.946336 -1.968923,-5.43833 -0.960894,-7.850883 0.497738,-1.191255 2.077736,-2.870621 3.466453,-3.684464 3.154959,-1.848929 8.725251,-2.218858 13.676024,-0.908239 l 0.992187,0.262662 v 2.928526 c 0,2.690379 -0.03765,2.91194 -0.463021,2.724575 -5.002625,-2.203554 -9.713512,-2.072273 -10.845841,0.302246 -0.34778,0.729303 -0.359303,0.994438 -0.07324,1.685067 0.452393,1.092173 1.341645,1.684042 4.14389,2.758093 5.484554,2.102132 6.873101,3.032938 7.939007,5.321878 0.716411,1.538431 0.831707,4.376615 0.244622,6.021734 -1.462238,4.097458 -6.727746,6.282216 -13.777713,5.716632 z m 24.414748,0.0083 c -3.469989,-0.491673 -5.863278,-2.739367 -6.556453,-6.157591 -0.809518,-3.991951 0.89911,-7.842218 4.238844,-9.551922 1.623632,-0.831183 2.687224,-1.09097 7.007234,-1.711548 5.880177,-0.844699 5.423751,-0.702655 5.423751,-1.687918 0,-1.385741 -1.039942,-3.111121 -2.248958,-3.731271 -1.238039,-0.635038 -4.494636,-0.716183 -6.482291,-0.161521 -1.3556,0.378285 -4.074714,1.629914 -4.960938,2.283558 l -0.595312,0.439079 v -2.957566 -2.957566 l 1.182283,-0.52298 c 3.312652,-1.465344 8.922132,-2.197142 12.096946,-1.578137 3.462342,0.675065 6.012248,2.659066 7.132357,5.549462 0.496337,1.280775 0.598841,2.264305 0.774289,7.429326 0.111221,3.274219 0.21193,7.947422 0.223797,10.384896 l 0.02158,4.431771 H 84.603635 81.03176 v -2.008134 -2.008134 l -1.05337,1.332614 c -2.047123,2.589804 -5.26658,3.721085 -9.060006,3.183582 z m 7.510812,-6.200992 c 1.71127,-1.202726 2.602564,-3.112692 2.602564,-5.577068 v -1.957288 l -0.992187,0.139537 c -0.545703,0.07675 -2.149337,0.303151 -3.56363,0.503123 -2.857797,0.404074 -4.008159,0.934722 -4.902138,2.261297 -1.127946,1.67376 -0.521137,4.13756 1.255872,5.099155 1.455397,0.78756 4.130647,0.563605 5.599519,-0.468756 z m 70.576437,5.833516 c -1.49957,-0.479618 -3.51519,-2.214566 -4.26418,-3.670404 -0.69727,-1.355293 -0.94296,-4.657574 -0.49534,-6.657751 0.58512,-2.614574 2.627,-4.655972 5.66181,-5.660469 0.89941,-0.297698 3.71046,-0.841935 6.24678,-1.209415 2.53632,-0.36748 4.64977,-0.70643 4.69656,-0.753223 0.0468,-0.04679 -0.0213,-0.654678 -0.15139,-1.350856 -0.27868,-1.491696 -0.93866,-2.461834 -2.16208,-3.178176 -1.99954,-1.170769 -7.51727,-0.346809 -10.56609,1.577827 -0.5765,0.363925 -1.11007,0.661682 -1.18573,0.661682 -0.0756,0 -0.13755,-1.247736 -0.13755,-2.772748 v -2.772747 l 1.022,-0.521385 c 1.67692,-0.855501 5.02763,-1.629662 7.75932,-1.792746 7.09672,-0.42368 11.12937,2.371402 12.10307,8.388793 0.15485,0.956978 0.27917,5.680551 0.28028,10.649478 l 0.002,8.929688 h -3.43958 -3.43959 v -2.037191 -2.03719 l -1.29123,1.448728 c -0.71017,0.7968 -1.93056,1.799084 -2.71198,2.227297 -1.26583,0.693676 -1.70924,0.786242 -4.06658,0.848937 -1.7762,0.04724 -3.04507,-0.05732 -3.8605,-0.318129 z m 8.35842,-5.396566 c 2.18896,-1.013458 3.26261,-2.865991 3.50298,-6.044249 l 0.14744,-1.949449 -1.42834,0.17984 c -6.55457,0.82528 -7.41851,1.135638 -8.36666,3.005603 -0.95554,1.884532 -0.44962,3.707052 1.33031,4.792345 1.10262,0.672313 3.38025,0.67984 4.81427,0.01591 z M 95.054674,64.604454 V 44.36383 h 3.70165 3.701646 l 0.0687,12.824575 0.0687,12.824576 4.5919,-6.342284 4.59191,-6.342284 h 4.33778 c 2.38578,0 4.33778,0.04796 4.33778,0.106569 0,0.05861 -2.3825,2.991697 -5.29445,6.517965 -3.41598,4.136624 -5.2139,6.516083 -5.06739,6.706452 0.12489,0.16228 2.58323,3.271617 5.46298,6.909638 2.87975,3.638021 5.35325,6.763411 5.49666,6.945312 0.20644,0.261847 -0.67875,0.33073 -4.25013,0.33073 h -4.51089 l -4.84807,-6.718697 -4.84808,-6.718696 -0.0706,6.718696 -0.0706,6.718697 h -3.699696 -3.6997 z m 29.897916,6.482292 V 57.328413 h 3.57188 3.57187 l 0.006,2.711979 0.006,2.711979 0.72239,-1.398156 c 0.81382,-1.575133 2.17437,-3.074812 3.36279,-3.706673 0.54425,-0.289366 1.51363,-0.428674 3.04713,-0.437896 l 2.24896,-0.01353 0.0743,3.404869 c 0.0692,3.174054 0.0423,3.392341 -0.39687,3.220078 -0.25914,-0.101635 -1.08002,-0.285491 -1.82419,-0.40857 -3.59947,-0.595324 -6.17819,1.545269 -6.97765,5.792132 -0.14755,0.783846 -0.26828,4.623611 -0.26828,8.532812 v 7.107637 h -3.57187 -3.57188 z M 69.196864,52.452877 c -1.094399,-0.494522 -1.921188,-1.853217 -1.922451,-3.159237 -8.13e-4,-0.841714 0.186776,-1.21108 1.057058,-2.081362 1.050431,-1.050431 1.070367,-1.057262 2.769578,-0.949065 1.337814,0.08519 1.85615,0.244846 2.373857,0.731207 1.509313,1.417925 1.431475,3.940381 -0.156484,5.071107 -1.023324,0.728671 -2.962816,0.910947 -4.121558,0.38735 z m 11.57031,-0.0901 c -1.95202,-1.054556 -2.32521,-3.460789 -0.801269,-5.166375 0.719341,-0.805083 0.854207,-0.848195 2.653352,-0.848195 1.803585,0 1.932655,0.04159 2.661984,0.857855 0.973458,1.089489 1.190949,1.967884 0.805659,3.253867 -0.594895,1.985584 -3.345427,2.96944 -5.319726,1.902848 z"
         id="path16" /><path
         style="fill:#6790a3"
         d="m 40.815091,97.280495 v -3.439583 h 1.66092 c 1.980828,0 2.836997,0.471239 2.836997,1.561495 0,0.405757 -0.238363,0.953455 -0.529695,1.217107 -0.528541,0.478324 -0.528397,0.480009 0.06615,0.774695 0.423319,0.209817 0.619093,0.572062 0.676149,1.251088 0.120258,1.431203 -0.818511,2.074783 -3.026407,2.074783 h -1.68411 z m 3.193406,1.962197 c 0.499819,-0.602245 -0.0093,-1.281358 -1.037276,-1.383648 -0.794188,-0.07903 -0.833213,-0.03875 -0.833213,0.859895 0,0.862258 0.06504,0.942806 0.761353,0.942806 0.418744,0 0.917856,-0.188574 1.109136,-0.419053 z m -0.264583,-2.910417 c 0.472569,-0.56941 0.01134,-1.27501 -0.904988,-1.384459 -0.642797,-0.07678 -0.700918,-0.0055 -0.700918,0.859896 0,0.817176 0.08429,0.943616 0.629061,0.943616 0.345984,0 0.785564,-0.188574 0.976845,-0.419053 z m 3.156594,0.94822 v -3.439583 h 1.984375 c 1.807986,0 1.984375,0.04704 1.984375,0.529166 0,0.458611 -0.176389,0.529167 -1.322917,0.529167 h -1.322917 v 0.926041 c 0,0.921142 0.0063,0.926042 1.190625,0.926042 1.014236,0 1.190625,0.0784 1.190625,0.529167 0,0.450771 -0.176389,0.529166 -1.190625,0.529166 -1.184325,0 -1.190625,0.0049 -1.190625,0.926042 v 0.926042 h 1.322917 c 1.146528,0 1.322917,0.07055 1.322917,0.529165 0,0.48213 -0.176389,0.52917 -1.984375,0.52917 h -1.984375 z m 5.225521,3.153805 c -0.254662,-0.14832 -0.463021,-0.51463 -0.463021,-0.81401 0,-0.421983 0.104069,-0.497147 0.463021,-0.334418 0.254661,0.11545 0.93927,0.217486 1.521354,0.226745 0.902973,0.01436 1.070772,-0.07077 1.143069,-0.579911 0.06871,-0.483889 -0.132151,-0.689714 -1.062081,-1.088329 -1.24715,-0.534591 -1.638052,-0.905825 -1.919127,-1.822568 -0.290952,-0.948958 1.097293,-2.180897 2.457605,-2.180897 1.474056,0 1.894075,0.217908 1.894075,0.982656 0,0.529007 -0.09271,0.621807 -0.46302,0.463439 -1.357902,-0.58073 -2.674461,-0.30278 -2.36655,0.499623 0.08687,0.226393 0.638265,0.656659 1.22531,0.956147 2.790518,1.423617 2.204884,3.977553 -0.909281,3.965353 -0.582084,-0.002 -1.266693,-0.1255 -1.521354,-0.27383 z m 5.357812,-3.153805 v -3.439583 h 0.661458 0.661459 v 3.439583 3.439585 h -0.661459 -0.661458 z m 3.175,0 v -3.439583 h 0.648255 c 0.601851,0 0.653934,0.106701 0.727604,1.490625 l 0.07935,1.490626 1.024408,-1.490626 c 0.844314,-1.228569 1.158287,-1.490625 1.785938,-1.490625 0.418841,0 0.761529,0.0452 0.761529,0.100457 0,0.05525 -0.534902,0.789305 -1.188672,1.631231 l -1.188672,1.530775 0.659505,0.88231 c 0.362728,0.48527 0.971294,1.299028 1.352367,1.808351 l 0.692862,0.926044 -0.891299,-0.01 c -0.780072,-0.009 -1.023371,-0.19864 -1.949632,-1.521355 L 62.114049,97.67737 62.0347,99.198724 c -0.07388,1.416536 -0.124014,1.521356 -0.727604,1.521356 h -0.648255 z m 7.408333,0.529166 v -2.910416 h -0.926041 c -0.749653,0 -0.926042,-0.100794 -0.926042,-0.529167 0,-0.493889 0.176389,-0.529166 2.645833,-0.529166 2.469445,0 2.645834,0.03528 2.645834,0.529166 0,0.440972 -0.176389,0.529167 -1.058334,0.529167 h -1.058333 v 2.910416 2.910419 h -0.661458 -0.661459 z m 4.233334,-0.529166 v -3.439583 l 0.859895,0.0052 c 0.791611,0.0048 0.975456,0.188617 2.315105,2.315104 l 1.455208,2.309921 0.07645,-2.315104 c 0.07471,-2.262581 0.09122,-2.315104 0.727604,-2.315104 h 0.651157 v 3.439583 3.439588 l -0.727604,-0.0111 c -0.625754,-0.01 -0.940563,-0.34997 -2.248958,-2.431811 l -1.521354,-2.420686 v 2.431811 2.431816 h -0.79375 -0.79375 z m 7.672916,0 v -3.439583 h 0.79375 0.79375 v 3.439583 3.439585 h -0.79375 -0.79375 z m 3.175,0 v -3.439583 l 0.727604,0.0041 c 0.622739,0.0036 0.951776,0.34675 2.283004,2.38125 0.85547,1.307405 1.576748,2.377099 1.60284,2.377099 0.02609,0 -0.0038,-1.071562 -0.06641,-2.38125 l -0.113848,-2.381249 h 0.826113 0.826114 v 3.439583 3.439585 h -0.778375 c -0.690181,0 -0.959426,-0.27731 -2.376279,-2.447398 l -1.597904,-2.447396 -0.005,2.447396 c -0.0049,2.432838 -0.0089,2.447398 -0.66643,2.447398 h -0.661458 z m 9.098523,3.180275 c -0.749297,-0.30275 -1.614507,-1.439624 -1.825009,-2.398034 -0.413403,-1.882212 1.132897,-3.925984 3.141671,-4.152402 1.787939,-0.201526 2.549398,0.06429 2.549398,0.889967 0,0.548347 -0.09222,0.64676 -0.46302,0.494108 -2.116936,-0.871502 -3.770313,0.0047 -3.770313,1.998112 0,1.42827 0.952776,2.438674 2.187221,2.319513 0.711791,-0.06871 0.86955,-0.204796 0.939207,-0.810185 0.07522,-0.653764 0.0014,-0.727604 -0.727604,-0.727604 -0.634935,0 -0.811324,-0.115046 -0.811324,-0.529167 0,-0.465025 0.176389,-0.529167 1.455208,-0.529167 h 1.455209 v 1.594049 c 0,1.46765 -0.05381,1.61451 -0.678683,1.85208 -0.818064,0.31103 -2.680725,0.31034 -3.451961,-0.001 z m 5.219779,-1.129755 c 0.303736,-0.763984 0.881983,-2.282031 1.284994,-3.373437 0.673649,-1.824332 0.797527,-1.990914 1.53596,-2.06545 0.74968,-0.07567 0.83843,0.01251 1.33144,1.322917 0.29052,0.772195 0.83737,2.221839 1.21522,3.22143 0.84529,2.236185 0.84553,2.283605 0.0118,2.283605 -0.51237,0 -0.74196,-0.19144 -0.95193,-0.793752 -0.25723,-0.737898 -0.36893,-0.79375 -1.5875,-0.79375 -1.218559,0 -1.330263,0.05585 -1.587496,0.79375 -0.221294,0.634802 -0.429691,0.793752 -1.040709,0.793752 h -0.764006 z m 3.567644,-1.90656 c -0.24302,-0.968248 -0.69078,-2.083751 -0.7894,-1.966592 -0.0476,0.05656 -0.275174,0.668387 -0.505702,1.359611 l -0.419141,1.256771 h 0.938663 c 0.86463,0 0.9258,-0.05125 0.77558,-0.64979 z m 3.5453,-0.14396 v -3.439583 h 1.68411 c 1.30314,0 1.84182,0.12405 2.38125,0.54837 0.9109,0.716513 0.93946,1.921667 0.064,2.701446 l -0.63313,0.563942 0.59811,0.8051 c 0.32897,0.442805 0.80616,1.132522 1.06044,1.532704 l 0.46231,0.727606 h -0.8026 c -0.633,0 -0.92445,-0.19717 -1.37926,-0.933061 -1.34255,-2.172287 -2.11233,-2.31436 -2.11233,-0.389858 0,1.234719 -0.0441,1.322919 -0.66146,1.322919 h -0.66146 z m 2.86546,-0.495782 c 0.19989,-0.126715 0.31419,-0.553602 0.26458,-0.988136 -0.0739,-0.647714 -0.2192,-0.777755 -0.94722,-0.84795 -0.84266,-0.08125 -0.8599,-0.06136 -0.8599,0.992188 0,0.939726 0.075,1.074586 0.59531,1.071045 0.32743,-0.0022 0.75368,-0.104444 0.94723,-0.227147 z m 6.72569,3.760137 c -0.1819,-0.0734 -0.33073,-0.43393 -0.33073,-0.80117 0,-0.536072 0.0913,-0.628105 0.46302,-0.4668 0.77287,0.335367 2.02848,0.41587 2.41981,0.155145 0.56537,-0.376689 0.16644,-1.011604 -1.01399,-1.613813 -2.85526,-1.456645 -2.08261,-4.158554 1.1226,-3.925641 0.99114,0.07202 1.11857,0.158573 1.19356,0.810679 0.0793,0.689778 0.0476,0.713466 -0.5758,0.429441 -0.85372,-0.388979 -2.02194,-0.100413 -2.02093,0.499199 4.6e-4,0.276561 0.49805,0.720002 1.25615,1.119438 2.00679,1.057372 2.40826,2.771107 0.83926,3.582472 -0.71487,0.36967 -2.6569,0.49191 -3.35295,0.21105 z m 7.01088,-0.27361 c -0.0747,-0.26246 -0.61893,-1.816657 -1.20934,-3.453766 l -1.07348,-2.976562 h 0.75585 c 0.7225,0 0.79497,0.117376 1.64277,2.66078 l 0.88693,2.660781 0.87214,-2.660781 c 0.78798,-2.404009 0.93432,-2.66078 1.51638,-2.66078 0.35432,0 0.63603,0.148828 0.62603,0.330729 -0.01,0.181901 -0.51754,1.699948 -1.12784,3.373437 -1.06932,2.932172 -1.1395,3.045622 -1.93161,3.123042 -0.60878,0.0595 -0.85721,-0.0434 -0.95783,-0.39688 z m 5.09381,-2.990745 v -3.439583 h 1.85208 c 1.67569,0 1.85208,0.0504 1.85208,0.529166 0,0.450772 -0.17639,0.529167 -1.19062,0.529167 -1.18433,0 -1.19063,0.0049 -1.19063,0.926041 0,0.921142 0.006,0.926042 1.19063,0.926042 1.01423,0 1.19062,0.0784 1.19062,0.529167 0,0.450771 -0.17639,0.529166 -1.19062,0.529166 -1.18433,0 -1.19063,0.0049 -1.19063,0.926042 v 0.926042 h 1.32292 c 1.14653,0 1.32292,0.07055 1.32292,0.529165 0,0.48213 -0.17639,0.52917 -1.98438,0.52917 h -1.98437 z m 5.02708,0 v -3.439583 h 1.79321 c 2.29845,0 2.96929,0.419035 2.96929,1.854734 0,0.769814 -0.15595,1.148615 -0.61565,1.495363 l -0.61565,0.464384 1.01139,1.333905 c 0.55626,0.733648 1.0119,1.423202 1.01252,1.532342 6.3e-4,0.10914 -0.32628,0.19625 -0.72646,0.19357 -0.57665,-0.004 -0.89229,-0.26414 -1.52136,-1.254514 -0.43656,-0.6873 -1.00211,-1.289151 -1.25677,-1.337445 -0.39167,-0.07428 -0.46302,0.119051 -0.46302,1.25451 0,1.315079 -0.0161,1.342319 -0.79375,1.342319 h -0.79375 z m 3.27925,-0.859896 c 0.39966,-0.638279 -0.0893,-1.365104 -0.99083,-1.472783 -0.65861,-0.07867 -0.70092,-0.01771 -0.70092,1.009762 0,1.027476 0.0423,1.088428 0.70092,1.009762 0.3855,-0.04605 0.83138,-0.29208 0.99083,-0.546741 z m 3.07075,0.859896 v -3.439583 h 0.66146 0.66146 v 3.439583 3.439585 h -0.66146 -0.66146 z m 4.17051,3.025405 c -2.14097,-1.161678 -1.95478,-4.887949 0.30257,-6.055268 0.80038,-0.413895 2.53996,-0.544802 3.31049,-0.249121 0.23018,0.08833 0.41851,0.428975 0.41851,0.756991 0,0.56792 -0.0513,0.582708 -1.07386,0.309763 -1.29947,-0.34685 -2.29751,0.09454 -2.86006,1.264887 -0.74768,1.55549 0.50789,3.512253 2.1085,3.286023 0.46792,-0.06614 0.65681,-0.281001 0.71852,-0.817326 0.0721,-0.626492 -0.0106,-0.727604 -0.59531,-0.727604 -0.50265,0 -0.67904,-0.137459 -0.67904,-0.529167 0,-0.458611 0.17639,-0.529167 1.32292,-0.529167 h 1.32292 v 1.594049 c 0,1.46765 -0.0538,1.61451 -0.67869,1.85208 -0.98608,0.37491 -2.78157,0.29741 -3.61747,-0.15614 z m 5.88366,-3.025405 v -3.439583 h 1.85208 c 1.67569,0 1.85208,0.0504 1.85208,0.529166 0,0.450772 -0.17639,0.529167 -1.19062,0.529167 -1.18433,0 -1.19063,0.0049 -1.19063,0.926041 0,0.921142 0.006,0.926042 1.19063,0.926042 1.01423,0 1.19062,0.0784 1.19062,0.529167 0,0.450771 -0.17639,0.529166 -1.19062,0.529166 -1.18433,0 -1.19063,0.0049 -1.19063,0.926042 v 0.926042 h 1.32292 c 1.14653,0 1.32292,0.07055 1.32292,0.529165 0,0.48213 -0.17639,0.52917 -1.98438,0.52917 h -1.98437 z m 8.23288,2.05052 c 0.30374,-0.763984 0.88198,-2.282031 1.285,-3.373437 0.67365,-1.824332 0.79752,-1.990914 1.53596,-2.06545 0.74968,-0.07567 0.83842,0.01251 1.33143,1.322917 0.29052,0.772195 0.83737,2.221839 1.21522,3.22143 0.84529,2.236185 0.84554,2.283605 0.0118,2.283605 -0.51237,0 -0.74196,-0.19144 -0.95193,-0.793752 -0.25723,-0.737898 -0.36894,-0.79375 -1.5875,-0.79375 -1.21856,0 -1.33027,0.05585 -1.5875,0.79375 -0.22129,0.634802 -0.42969,0.793752 -1.04071,0.793752 h -0.764 z m 3.56765,-1.90656 c -0.24302,-0.968248 -0.69079,-2.083751 -0.7894,-1.966592 -0.0476,0.05656 -0.27518,0.668387 -0.50571,1.359611 l -0.41914,1.256771 h 0.93867 c 0.86463,0 0.9258,-0.05125 0.77558,-0.64979 z m 3.5453,-0.14396 v -3.439583 h 1.66092 c 2.03854,0 2.837,0.463768 2.837,1.647815 0,0.453232 -0.19705,1.041794 -0.43789,1.307913 -0.25218,0.27866 -0.31087,0.483855 -0.13839,0.483855 0.54655,0 1.14049,1.223452 0.95422,1.965595 -0.24201,0.96427 -1.37462,1.47399 -3.27522,1.47399 h -1.60064 z m 3.12208,2.06375 c 0.77857,-0.778563 0.20741,-1.534584 -1.15934,-1.534584 -0.55484,0 -0.63982,0.123005 -0.63982,0.926042 0,0.837847 0.0705,0.926042 0.74083,0.926042 0.40746,0 0.88371,-0.142875 1.05833,-0.3175 z m -0.19326,-3.01197 c 0.47257,-0.56941 0.0113,-1.27501 -0.90499,-1.384459 -0.64279,-0.07678 -0.70091,-0.0055 -0.70091,0.859896 0,0.817176 0.0843,0.943616 0.62906,0.943616 0.34598,0 0.78556,-0.188574 0.97684,-0.419053 z M 46.503633,85.336727 C 44.359671,85.164728 42.514117,84.810989 41.24674,84.329133 l -0.696232,-0.264707 v -3.049257 c 0,-1.677091 0.05597,-3.049257 0.124378,-3.049257 0.06841,0 0.812549,0.347816 1.653646,0.772924 2.924876,1.478292 6.319632,1.975354 8.956422,1.311403 1.353191,-0.340737 2.49472,-1.499613 2.49472,-2.53263 0,-1.098173 -1.693508,-2.533504 -3.96875,-3.363708 -3.726522,-1.359757 -6.775103,-2.991907 -7.64877,-4.095001 -1.541527,-1.946336 -1.968923,-5.43833 -0.960894,-7.850883 0.497738,-1.191255 2.077736,-2.870621 3.466453,-3.684464 3.154959,-1.848929 8.725251,-2.218858 13.676024,-0.908239 l 0.992187,0.262662 v 2.928526 c 0,2.690379 -0.03765,2.91194 -0.463021,2.724575 -5.002625,-2.203554 -9.713512,-2.072273 -10.845841,0.302246 -0.34778,0.729303 -0.359303,0.994438 -0.07324,1.685067 0.452393,1.092173 1.341645,1.684042 4.14389,2.758093 5.484554,2.102132 6.873101,3.032938 7.939007,5.321878 0.716411,1.538431 0.831707,4.376615 0.244622,6.021734 -1.462238,4.097458 -6.727746,6.282216 -13.777713,5.716632 z m 24.414748,0.0083 c -3.469989,-0.491673 -5.863278,-2.739367 -6.556453,-6.157591 -0.809518,-3.991951 0.89911,-7.842218 4.238844,-9.551922 1.623632,-0.831183 2.687224,-1.09097 7.007234,-1.711548 5.880177,-0.844699 5.423751,-0.702655 5.423751,-1.687918 0,-1.385741 -1.039942,-3.111121 -2.248958,-3.731271 -1.238039,-0.635038 -4.494636,-0.716183 -6.482291,-0.161521 -1.3556,0.378285 -4.074714,1.629914 -4.960938,2.283558 l -0.595312,0.439079 v -2.957566 -2.957566 l 1.182283,-0.52298 c 3.312652,-1.465344 8.922132,-2.197142 12.096946,-1.578137 3.462342,0.675065 6.012248,2.659066 7.132357,5.549462 0.496337,1.280775 0.598841,2.264305 0.774289,7.429326 0.111221,3.274219 0.21193,7.947422 0.223797,10.384896 l 0.02158,4.431771 H 84.603635 81.03176 v -2.008134 -2.008134 l -1.05337,1.332614 c -2.047123,2.589804 -5.26658,3.721085 -9.060006,3.183582 z m 7.510812,-6.200992 c 1.71127,-1.202726 2.602564,-3.112692 2.602564,-5.577068 v -1.957288 l -0.992187,0.139537 c -0.545703,0.07675 -2.149337,0.303151 -3.56363,0.503123 -2.857797,0.404074 -4.008159,0.934722 -4.902138,2.261297 -1.127946,1.67376 -0.521137,4.13756 1.255872,5.099155 1.455397,0.78756 4.130647,0.563605 5.599519,-0.468756 z m 70.576437,5.833516 c -1.49957,-0.479618 -3.51519,-2.214566 -4.26418,-3.670404 -0.69727,-1.355293 -0.94296,-4.657574 -0.49534,-6.657751 0.58512,-2.614574 2.627,-4.655972 5.66181,-5.660469 0.89941,-0.297698 3.71046,-0.841935 6.24678,-1.209415 2.53632,-0.36748 4.64977,-0.70643 4.69656,-0.753223 0.0468,-0.04679 -0.0213,-0.654678 -0.15139,-1.350856 -0.27868,-1.491696 -0.93866,-2.461834 -2.16208,-3.178176 -1.99954,-1.170769 -7.51727,-0.346809 -10.56609,1.577827 -0.5765,0.363925 -1.11007,0.661682 -1.18573,0.661682 -0.0756,0 -0.13755,-1.247736 -0.13755,-2.772748 v -2.772747 l 1.022,-0.521385 c 1.67692,-0.855501 5.02763,-1.629662 7.75932,-1.792746 7.09672,-0.42368 11.12937,2.371402 12.10307,8.388793 0.15485,0.956978 0.27917,5.680551 0.28028,10.649478 l 0.002,8.929688 h -3.43958 -3.43959 v -2.037191 -2.03719 l -1.29123,1.448728 c -0.71017,0.7968 -1.93056,1.799084 -2.71198,2.227297 -1.26583,0.693676 -1.70924,0.786242 -4.06658,0.848937 -1.7762,0.04724 -3.04507,-0.05732 -3.8605,-0.318129 z m 8.35842,-5.396566 c 2.18896,-1.013458 3.26261,-2.865991 3.50298,-6.044249 l 0.14744,-1.949449 -1.42834,0.17984 c -6.55457,0.82528 -7.41851,1.135638 -8.36666,3.005603 -0.95554,1.884532 -0.44962,3.707052 1.33031,4.792345 1.10262,0.672313 3.38025,0.67984 4.81427,0.01591 z M 95.054674,64.604454 V 44.36383 h 3.70165 3.701646 l 0.0687,12.824575 0.0687,12.824576 4.5919,-6.342284 4.59191,-6.342284 h 4.33778 c 2.38578,0 4.33778,0.04796 4.33778,0.106569 0,0.05861 -2.3825,2.991697 -5.29445,6.517965 -3.41598,4.136624 -5.2139,6.516083 -5.06739,6.706452 0.12489,0.16228 2.58323,3.271617 5.46298,6.909638 2.87975,3.638021 5.35325,6.763411 5.49666,6.945312 0.20644,0.261847 -0.67875,0.33073 -4.25013,0.33073 h -4.51089 l -4.84807,-6.718697 -4.84808,-6.718696 -0.0706,6.718696 -0.0706,6.718697 h -3.699696 -3.6997 z m 29.897916,6.482292 V 57.328413 h 3.57188 3.57187 l 0.006,2.711979 0.006,2.711979 0.72239,-1.398156 c 0.81382,-1.575133 2.17437,-3.074812 3.36279,-3.706673 0.54425,-0.289366 1.51363,-0.428674 3.04713,-0.437896 l 2.24896,-0.01353 0.0743,3.404869 c 0.0692,3.174054 0.0423,3.392341 -0.39687,3.220078 -0.25914,-0.101635 -1.08002,-0.285491 -1.82419,-0.40857 -3.59947,-0.595324 -6.17819,1.545269 -6.97765,5.792132 -0.14755,0.783846 -0.26828,4.623611 -0.26828,8.532812 v 7.107637 h -3.57187 -3.57188 z M 69.196864,52.452877 c -1.094399,-0.494522 -1.921188,-1.853217 -1.922451,-3.159237 -8.13e-4,-0.841714 0.186776,-1.21108 1.057058,-2.081362 1.050431,-1.050431 1.070367,-1.057262 2.769578,-0.949065 1.337814,0.08519 1.85615,0.244846 2.373857,0.731207 1.509313,1.417925 1.431475,3.940381 -0.156484,5.071107 -1.023324,0.728671 -2.962816,0.910947 -4.121558,0.38735 z m 11.57031,-0.0901 c -1.95202,-1.054556 -2.32521,-3.460789 -0.801269,-5.166375 0.719341,-0.805083 0.854207,-0.848195 2.653352,-0.848195 1.803585,0 1.932655,0.04159 2.661984,0.857855 0.973458,1.089489 1.190949,1.967884 0.805659,3.253867 -0.594895,1.985584 -3.345427,2.96944 -5.319726,1.902848 z"
         id="path15" /><path
         style="fill:#3b7189"
         d="m 40.815091,97.316046 v -3.475134 h 1.283435 c 2.721936,0 3.876497,1.091259 2.756835,2.605684 l -0.525696,0.711041 0.623963,0.470656 c 0.744809,0.56181 0.803654,1.488336 0.146101,2.30038 -0.389614,0.481157 -0.829364,0.615287 -2.38125,0.726317 l -1.903388,0.13619 z m 3.307292,1.419657 c 0,-0.744672 -0.06953,-0.79878 -1.124479,-0.875109 l -1.12448,-0.08136 v 0.956468 0.956468 l 1.12448,-0.08136 c 1.054952,-0.07633 1.124479,-0.130437 1.124479,-0.875109 z m -0.315305,-2.543724 c 0.458729,-0.733095 0.02612,-1.292734 -0.999308,-1.292734 -0.894599,0 -0.934346,0.04011 -0.934346,0.942805 0,0.898647 0.03903,0.938922 0.833213,0.859896 0.458267,-0.0456 0.953466,-0.275086 1.100441,-0.509967 z m 3.09343,1.088516 v -3.439583 h 1.852083 c 1.675694,0 1.852083,0.0504 1.852083,0.529166 0,0.450772 -0.176389,0.529167 -1.190625,0.529167 -1.184325,0 -1.190625,0.0049 -1.190625,0.926041 0,0.903993 0.0252,0.926042 1.058334,0.926042 0.881944,0 1.058333,0.08819 1.058333,0.529167 0,0.440972 -0.176389,0.529166 -1.058333,0.529166 -1.033135,0 -1.058334,0.02205 -1.058334,0.926042 v 0.926042 h 1.322917 c 1.146528,0 1.322917,0.07055 1.322917,0.529165 0,0.48213 -0.176389,0.52917 -1.984375,0.52917 h -1.984375 z m 5.622396,3.252855 c -0.351999,-0.0678 -0.595313,-0.30754 -0.595313,-0.586585 0,-0.404096 0.182112,-0.454427 1.267038,-0.35018 0.93806,0.09014 1.356159,0.01436 1.610278,-0.291832 0.459051,-0.553122 0.256117,-0.811518 -1.304352,-1.660832 -1.974409,-1.074608 -2.162543,-2.524331 -0.436979,-3.367276 1.228735,-0.600242 2.832765,-0.418769 2.832765,0.320487 0,0.383853 -0.225216,0.464678 -1.256771,0.451031 -1.091784,-0.01444 -1.267442,0.05826 -1.338056,0.553792 -0.06438,0.451781 0.210764,0.726925 1.322916,1.322917 1.457434,0.781024 1.750309,1.319779 1.424069,2.619625 -0.219953,0.876363 -1.803566,1.320533 -3.525595,0.988853 z m 5.22552,-3.252855 c 0,-3.263195 0.02714,-3.439583 0.529167,-3.439583 0.50203,0 0.529167,0.176388 0.529167,3.439583 0,3.263195 -0.02714,3.439585 -0.529167,3.439585 -0.50203,0 -0.529167,-0.17639 -0.529167,-3.439585 z m 2.910417,0 c 0,-3.263195 0.02714,-3.439583 0.529167,-3.439583 0.47037,0 0.529166,0.176388 0.529166,1.587499 0,0.873125 0.0893,1.584625 0.198438,1.581111 0.10914,-0.0035 0.674687,-0.715014 1.256771,-1.581111 0.877844,-1.306166 1.187944,-1.57581 1.818334,-1.58111 0.565321,-0.0048 0.696052,0.07833 0.510355,0.32434 -0.137305,0.181901 -0.687664,0.878773 -1.223021,1.548604 -0.535357,0.669831 -0.973377,1.307792 -0.973377,1.417692 0,0.1099 0.605564,0.96084 1.345698,1.890979 l 1.345699,1.691164 h -0.807415 c -0.686059,0 -0.975684,-0.23861 -1.926951,-1.587502 -0.615744,-0.873125 -1.215159,-1.5875 -1.332033,-1.5875 -0.116874,0 -0.212498,0.714375 -0.212498,1.5875 0,1.411112 -0.0588,1.587502 -0.529166,1.587502 -0.50203,0 -0.529167,-0.17639 -0.529167,-3.439585 z m 7.672917,0.529166 v -2.910416 h -1.058334 c -0.881944,0 -1.058333,-0.08819 -1.058333,-0.529167 0,-0.492032 0.176389,-0.529166 2.513542,-0.529166 2.337152,0 2.513541,0.03713 2.513541,0.529166 0,0.428373 -0.176389,0.529167 -0.926041,0.529167 h -0.926042 v 2.910416 c 0,2.734029 -0.03207,2.910419 -0.529167,2.910419 -0.497096,0 -0.529166,-0.17639 -0.529166,-2.910419 z m 4.233333,-0.529166 v -3.439583 h 0.626498 c 0.499591,0 0.968555,0.519102 2.315105,2.562619 l 1.688605,2.56262 0.07573,-2.56262 c 0.06929,-2.344771 0.119897,-2.562619 0.595313,-2.562619 0.489746,0 0.519585,0.19753 0.519585,3.439583 v 3.439585 H 77.7503 c -0.512812,0 -0.960124,-0.49844 -2.315104,-2.579689 l -1.67948,-2.579688 -0.07573,2.579688 c -0.06933,2.361729 -0.119626,2.579689 -0.595313,2.579689 -0.489746,0 -0.519585,-0.19753 -0.519585,-3.439585 z m 7.672917,0 c 0,-3.263195 0.02714,-3.439583 0.529166,-3.439583 0.50203,0 0.529167,0.176388 0.529167,3.439583 0,3.263195 -0.02714,3.439585 -0.529167,3.439585 -0.50203,0 -0.529166,-0.17639 -0.529166,-3.439585 z m 2.910416,0 v -3.439583 h 0.673907 c 0.562205,0 0.945936,0.423176 2.315104,2.553082 l 1.641197,2.553082 0.07573,-2.553082 c 0.06927,-2.335293 0.12005,-2.553082 0.595313,-2.553082 0.489746,0 0.519585,0.19753 0.519585,3.439583 0,3.424555 -0.0027,3.439585 -0.61584,3.439585 -0.490943,0 -0.933635,-0.50775 -2.182812,-2.503595 -0.861835,-1.376976 -1.656269,-2.50807 -1.76541,-2.513542 -0.109141,-0.0055 -0.198438,1.121146 -0.198438,2.503593 0,2.337154 -0.03713,2.513544 -0.529166,2.513544 -0.50203,0 -0.529167,-0.17639 -0.529167,-3.439585 z m 9.316485,3.150965 c -1.156723,-0.3469 -1.905887,-1.602654 -1.907163,-3.196811 -0.0012,-1.557787 0.89718,-2.729802 2.403496,-3.135411 1.367346,-0.368188 2.887182,-0.09128 2.887182,0.52603 0,0.391281 -0.192462,0.442389 -1.274442,0.338425 -1.069942,-0.102808 -1.393584,-0.01998 -2.016932,0.516205 -1.640765,1.411326 -0.638561,4.302477 1.431028,4.128222 0.799159,-0.06729 0.946414,-0.183913 1.018024,-0.806271 0.07209,-0.626492 -0.01064,-0.727604 -0.595312,-0.727604 -0.502644,0 -0.679033,-0.137459 -0.679033,-0.529167 0,-0.450772 0.176389,-0.529167 1.190625,-0.529167 h 1.190625 v 1.571885 c 0,0.864537 -0.0893,1.626854 -0.198437,1.694034 -0.477025,0.29362 -2.654572,0.38807 -3.449661,0.14963 z m 4.706432,0.10581 c 0,-0.10054 0.551355,-1.648357 1.225235,-3.439583 1.151898,-3.06184 1.268092,-3.256775 1.941244,-3.256775 0.67309,0 0.78373,0.185499 1.84558,3.094301 0.62126,1.701867 1.18919,3.249677 1.26206,3.439587 0.0873,0.22745 -0.0941,0.34528 -0.53139,0.34528 -0.49977,0 -0.73228,-0.19622 -0.94058,-0.793752 -0.26199,-0.751542 -0.3537,-0.79375 -1.72465,-0.79375 -1.393707,0 -1.454486,0.02974 -1.622291,0.79375 -0.135146,0.615312 -0.318308,0.793752 -0.814772,0.793752 -0.35224,0 -0.640436,-0.0823 -0.640436,-0.18281 z m 3.820309,-3.587504 c -0.68865,-1.98787 -0.68021,-1.979763 -1.032824,-0.992188 -0.796233,2.23003 -0.815404,2.116667 0.357944,2.116667 h 1.06443 z m 3.58802,0.295177 v -3.475134 l 1.84822,0.132239 c 2.20476,0.157749 2.6497,0.460706 2.6497,1.80414 0,0.757621 -0.16301,1.134959 -0.65878,1.524929 -0.5886,0.462994 -0.61441,0.555022 -0.24225,0.863882 0.22908,0.190126 0.76938,0.858548 1.20065,1.485382 l 0.78414,1.139699 -0.74032,-0.005 c -0.59401,-0.004 -0.91066,-0.26526 -1.60224,-1.322913 -0.55689,-0.85166 -1.04849,-1.318162 -1.38907,-1.318162 -0.45617,0 -0.52713,0.17809 -0.52713,1.322916 0,1.234719 -0.0441,1.322919 -0.66146,1.322919 h -0.66146 z m 3.21958,-0.882655 c 0.38806,-0.85171 -0.0863,-1.463043 -1.13531,-1.463043 -0.71185,0 -0.76135,0.0688 -0.76135,1.058333 0,1.001206 0.0431,1.058333 0.79942,1.058333 0.59341,0 0.87617,-0.168444 1.09724,-0.653623 z m 6.90074,4.182182 c -0.33838,-0.0715 -0.59532,-0.32255 -0.59532,-0.581695 0,-0.375039 0.24641,-0.453912 1.38907,-0.444619 1.22524,0.01 1.39865,-0.05598 1.47034,-0.559121 0.0644,-0.451782 -0.21076,-0.726925 -1.32291,-1.322917 -1.21523,-0.651227 -1.41561,-0.871554 -1.48896,-1.637143 -0.0526,-0.548972 0.0795,-1.066101 0.34802,-1.362862 0.86557,-0.956435 3.57319,-0.960428 3.57319,-0.0053 0,0.394734 -0.17763,0.447961 -1.13488,0.340065 -0.82513,-0.093 -1.22853,-0.01508 -1.47799,0.285494 -0.46249,0.557267 -0.22412,0.859978 1.27566,1.619974 0.69915,0.354284 1.34557,0.838008 1.43649,1.074942 0.29849,0.777867 0.17342,1.621068 -0.30463,2.053692 -0.50453,0.4566 -2.19656,0.74472 -3.16808,0.53946 z m 6.5188,-0.551996 c -0.682,-1.765205 -2.08688,-5.772682 -2.08695,-5.953125 -5e-5,-0.109141 0.27186,-0.198437 0.60424,-0.198437 0.53342,0 0.71252,0.329225 1.52647,2.80585 l 0.92214,2.80585 0.90686,-2.80585 c 0.8048,-2.490087 0.97543,-2.80585 1.51624,-2.80585 0.33516,0 0.60938,0.04533 0.60938,0.100729 0,0.120158 -1.74264,5.010398 -2.15622,6.050833 -0.2034,0.511696 -0.47792,0.727606 -0.92513,0.727606 -0.44918,0 -0.71846,-0.21366 -0.91703,-0.727606 z m 5.05672,-2.711979 v -3.439583 h 1.85208 c 1.67569,0 1.85208,0.0504 1.85208,0.529166 0,0.458611 -0.17639,0.529167 -1.32291,0.529167 h -1.32292 v 0.926041 c 0,0.921142 0.006,0.926042 1.19063,0.926042 1.01423,0 1.19062,0.0784 1.19062,0.529167 0,0.450771 -0.17639,0.529166 -1.19062,0.529166 -1.18433,0 -1.19063,0.0049 -1.19063,0.926042 v 0.926042 h 1.32292 c 1.14652,0 1.32291,0.07055 1.32291,0.529165 0,0.47877 -0.17639,0.52917 -1.85208,0.52917 h -1.85208 z m 5.29166,0 v -3.439583 h 1.3057 c 1.40345,0 2.66209,0.369638 2.98435,0.876448 0.41323,0.649892 0.20502,1.811968 -0.42526,2.373368 l -0.63313,0.563942 0.59812,0.8051 c 0.32896,0.442805 0.80616,1.132522 1.06043,1.532704 0.45959,0.723306 0.4584,0.727606 -0.20199,0.727606 -0.50759,0 -0.86457,-0.31209 -1.51322,-1.322919 -0.63088,-0.983144 -1.01171,-1.322916 -1.48279,-1.322916 -0.58426,0 -0.63387,0.103544 -0.63387,1.322916 0,1.146529 -0.0706,1.322919 -0.52917,1.322919 -0.50203,0 -0.52917,-0.17639 -0.52917,-3.439585 z M 134.4655,96.6336 c 0.17451,-0.210272 0.27839,-0.656756 0.23084,-0.992188 -0.0701,-0.49465 -0.27391,-0.62539 -1.07865,-0.691993 l -0.99218,-0.08212 v 1.074304 c 0,1.007125 0.0476,1.074305 0.76135,1.074305 0.41874,0 0.90413,-0.17204 1.07864,-0.382311 z m 3.45167,0.646895 c 0,-3.263195 0.0271,-3.439583 0.52917,-3.439583 0.50203,0 0.52917,0.176388 0.52917,3.439583 0,3.263195 -0.0271,3.439585 -0.52917,3.439585 -0.50203,0 -0.52917,-0.17639 -0.52917,-3.439585 z m 4.23334,2.976155 c -1.73226,-0.865363 -2.29258,-3.241612 -1.16879,-4.956722 0.59595,-0.909534 2.36256,-1.538467 3.74084,-1.331781 0.88813,0.133184 1.13211,0.280992 1.13211,0.685853 0,0.452885 -0.12807,0.495603 -1.04584,0.348845 -1.48108,-0.236835 -2.32201,0.04855 -2.7858,0.945427 -0.98462,1.904034 0.0183,3.820394 1.91714,3.663076 0.85739,-0.07104 0.99956,-0.178374 1.07218,-0.809499 0.0752,-0.653764 0.001,-0.727604 -0.7276,-0.727604 -0.63494,0 -0.81133,-0.115046 -0.81133,-0.529167 0,-0.458611 0.17639,-0.529167 1.32292,-0.529167 h 1.32292 v 1.575064 1.575065 l -0.99219,0.27554 c -1.3756,0.38203 -1.90783,0.34896 -2.97656,-0.18493 z m 5.55625,-2.976155 v -3.439583 h 1.85208 c 1.67569,0 1.85208,0.0504 1.85208,0.529166 0,0.458611 -0.17639,0.529167 -1.32291,0.529167 h -1.32292 v 0.926041 c 0,0.921142 0.006,0.926042 1.19063,0.926042 1.01423,0 1.19062,0.0784 1.19062,0.529167 0,0.450771 -0.17639,0.529166 -1.19062,0.529166 -1.18433,0 -1.19063,0.0049 -1.19063,0.926042 v 0.926042 h 1.32292 c 1.14652,0 1.32291,0.07055 1.32291,0.529165 0,0.47877 -0.17639,0.52917 -1.85208,0.52917 h -1.85208 z m 7.9375,3.256775 c 0,-0.10054 0.55135,-1.648357 1.22523,-3.439583 1.1519,-3.06184 1.26809,-3.256775 1.94125,-3.256775 0.67309,0 0.78373,0.185499 1.84557,3.094301 0.62126,1.701867 1.18919,3.249677 1.26206,3.439587 0.0873,0.22745 -0.0941,0.34528 -0.53138,0.34528 -0.49977,0 -0.73229,-0.19622 -0.94059,-0.793752 -0.26199,-0.751542 -0.35369,-0.79375 -1.72465,-0.79375 -1.3937,0 -1.45448,0.02974 -1.62228,0.79375 -0.13515,0.615312 -0.31831,0.793752 -0.81478,0.793752 -0.35224,0 -0.64043,-0.0823 -0.64043,-0.18281 z m 3.82031,-3.587504 c -0.68865,-1.98787 -0.68021,-1.979763 -1.03283,-0.992188 -0.79623,2.23003 -0.8154,2.116667 0.35795,2.116667 h 1.06443 z m 3.58802,0.360586 v -3.46944 h 1.30569 c 2.8386,0 4.04676,1.305242 2.61694,2.827218 -0.31641,0.3368 -0.44398,0.612365 -0.28348,0.612365 0.5336,0 1.12335,0.821813 1.12335,1.565391 0,1.188774 -0.83775,1.712134 -2.92985,1.830354 l -1.83265,0.10355 z m 3.40784,1.881539 c 0.40576,-0.758162 -0.12341,-1.38223 -1.17203,-1.38223 -0.86692,0 -0.91289,0.04664 -0.91289,0.926042 0,0.880153 0.0454,0.926042 0.91673,0.926042 0.60737,0 1.00159,-0.158559 1.16819,-0.469854 z m -0.36513,-3.366605 c 0,-0.702116 -0.0993,-0.803321 -0.8599,-0.876659 -0.82731,-0.07977 -0.85989,-0.04655 -0.85989,0.876659 0,0.923209 0.0326,0.956428 0.85989,0.87666 0.76063,-0.07334 0.8599,-0.174543 0.8599,-0.87666 z M 44.543922,85.103496 c -0.641278,-0.134743 -1.802137,-0.429928 -2.579687,-0.655968 l -1.413727,-0.410982 v -3.057365 c 0,-1.681551 0.0893,-3.016996 0.198437,-2.967656 0.109141,0.04934 0.821516,0.417443 1.583055,0.818003 1.891603,0.994962 4.056933,1.517918 6.277742,1.516159 3.112206,-0.0025 4.671096,-0.692855 5.059594,-2.240753 0.464059,-1.848961 -0.648697,-2.84071 -5.068959,-4.517735 -1.714633,-0.650523 -3.602216,-1.469114 -4.194629,-1.819092 -2.5118,-1.483885 -3.610559,-3.466094 -3.621258,-6.532911 -0.0133,-3.812763 2.122455,-6.342226 6.512893,-7.713484 2.405896,-0.75143 6.965857,-0.797419 9.988021,-0.100734 l 2.05052,0.472696 v 2.920677 c 0,2.23783 -0.07732,2.886625 -0.330729,2.775031 -3.777406,-1.663478 -6.389057,-2.119176 -8.640767,-1.507695 -2.33531,0.634185 -3.32549,2.544342 -2.115994,4.081968 0.666418,0.847212 1.610472,1.343321 5.280224,2.7748 4.48964,1.751298 5.854581,2.832712 6.738877,5.339075 0.482346,1.367113 0.487523,3.750456 0.01105,5.086018 -0.853079,2.391188 -2.838923,4.174427 -5.83745,5.241886 -1.249578,0.444842 -2.347825,0.584076 -5.159375,0.654095 -1.964532,0.04892 -4.096557,-0.02129 -4.737836,-0.156033 z m 25.373623,0.03833 c -3.16322,-1.032763 -5.018148,-3.147026 -5.513264,-6.284065 -0.404739,-2.564417 0.14651,-5.206812 1.440022,-6.902693 1.678433,-2.200539 4.20241,-3.198868 10.160371,-4.018811 5.792104,-0.797118 5.252902,-0.56356 4.999649,-2.165624 -0.255803,-1.6182 -0.766922,-2.468631 -1.896552,-3.1556 -2.414217,-1.468173 -7.703203,-0.697188 -11.25694,1.640945 l -1.142385,0.751617 0.178968,-2.847404 c 0.135555,-2.156695 0.283135,-2.929536 0.608391,-3.185992 0.766773,-0.604581 4.503902,-1.637536 7.061654,-1.951865 5.694719,-0.69984 10.228239,1.028744 12.057734,4.597488 1.181761,2.305228 1.295731,3.503527 1.295731,13.623554 v 9.601703 h -3.439583 -3.439584 v -1.999457 -1.999456 l -1.452439,1.568809 c -1.952589,2.109029 -3.464932,2.76408 -6.617352,2.866218 -1.309688,0.04243 -2.679677,-0.02028 -3.044421,-0.139367 z m 7.939213,-5.601386 c 2.09578,-1.058552 3.08515,-2.813018 3.349445,-5.939624 0.137606,-1.62788 0.09934,-1.984904 -0.212757,-1.984904 -1.619785,0 -6.906211,0.915909 -7.823065,1.355398 -2.050817,0.983049 -2.83781,3.536628 -1.676792,5.440737 1.125142,1.845272 3.951532,2.346481 6.363169,1.128393 z m 71.227142,5.347712 c -1.867,-0.664978 -3.13204,-1.734433 -4.12736,-3.48924 -0.7678,-1.353675 -0.82166,-1.622045 -0.82166,-4.094458 0,-2.369256 0.0783,-2.805322 0.74921,-4.17156 1.49134,-3.037081 3.83539,-4.151922 10.96195,-5.213571 2.6576,-0.395904 4.90913,-0.796961 5.00341,-0.891238 0.0943,-0.09428 0.029,-0.807733 -0.14504,-1.585458 -0.59382,-2.653488 -2.58407,-3.805797 -6.09826,-3.530754 -2.26008,0.176888 -4.48034,0.866882 -6.55247,2.036321 l -1.40526,0.793076 v -2.795265 -2.795264 l 1.15441,-0.510648 c 3.60335,-1.593933 10.034,-2.207064 13.13309,-1.252175 3.19827,0.985444 5.10649,2.855336 6.12644,6.003387 0.52384,1.616819 0.57347,2.452214 0.68904,11.598045 l 0.12453,9.855729 h -3.4593 -3.45931 l -0.0768,-2.099782 -0.0769,-2.099782 -1.19062,1.481997 c -1.77525,2.209689 -3.58893,3.068245 -6.70935,3.176061 -1.86033,0.06428 -2.74223,-0.03163 -3.81976,-0.415421 z m 8.06588,-5.10773 c 1.27762,-0.389913 2.83491,-2.104967 3.34475,-3.683588 0.54317,-1.681832 0.60179,-4.480922 0.0938,-4.480922 -1.26131,0 -6.42221,0.851487 -7.24527,1.195385 -2.02185,0.844782 -2.9272,2.386518 -2.5863,4.404264 0.21105,1.249182 1.32889,2.508168 2.4454,2.754168 0.39724,0.08752 0.84133,0.198584 0.98685,0.246799 0.34892,0.115604 1.90304,-0.113314 2.96073,-0.436106 z M 95.319257,64.604454 V 44.36383 h 3.569358 3.569355 l 0.0687,12.885734 0.0687,12.885734 4.49792,-6.236186 4.49791,-6.236186 4.31474,-0.196096 c 2.37311,-0.107852 4.36411,-0.146721 4.42446,-0.08638 0.0603,0.06034 -2.26824,2.982021 -5.17464,6.492613 -2.90639,3.510592 -5.28435,6.453801 -5.28435,6.540464 0,0.130244 9.76056,12.456638 11.06087,13.968527 0.37707,0.438417 0.16052,0.463021 -4.07526,0.463021 h -4.4735 l -4.89407,-6.769695 -4.89408,-6.769694 -0.0706,6.769694 -0.0706,6.769695 h -3.567404 -3.567409 z m 29.633333,6.614583 V 57.592996 h 3.57188 3.57187 l 0.005,2.579688 0.005,2.579687 0.80092,-1.453226 c 0.996,-1.807161 1.93079,-2.805895 3.27138,-3.495148 1.12156,-0.57664 3.65043,-0.915437 4.75805,-0.637442 l 0.68506,0.17194 v 3.276356 3.276357 l -1.23268,-0.370981 c -3.30071,-0.99337 -5.8816,0.149004 -7.42174,3.285065 l -0.73829,1.503329 -0.0861,8.268229 -0.0861,8.268229 h -3.55194 -3.55194 z M 69.237728,52.329083 c -1.79318,-0.81443 -2.442652,-2.811867 -1.445849,-4.446679 0.94313,-1.546784 2.97587,-2.092919 4.85992,-1.305713 2.515791,1.051165 2.353549,4.799102 -0.254925,5.888993 -1.156582,0.48325 -1.861492,0.45277 -3.159146,-0.136601 z m 11.903881,0.125331 c -1.306236,-0.568735 -1.961935,-1.611316 -1.961935,-3.119535 0,-1.084754 0.128483,-1.436071 0.75394,-2.061527 0.838049,-0.83805 2.220714,-1.203551 3.584844,-0.947639 3.33186,0.625061 3.571066,4.998489 0.340346,6.222576 -0.971969,0.368269 -1.714708,0.342609 -2.717195,-0.09387 z"
         id="path14" /><path
         style="fill:#235f7b"
         d="m 40.815091,97.249672 v -3.470406 l 1.755145,0.111759 c 1.434278,0.09133 1.845422,0.223246 2.248959,0.721593 0.65572,0.809781 0.622633,1.270257 -0.14009,1.949633 -0.628276,0.55962 -0.629093,0.567075 -0.09212,0.839875 0.792832,0.402782 1.092549,1.02366 0.887855,1.839228 -0.228121,0.908906 -1.510677,1.478726 -3.328338,1.478726 h -1.331415 z m 3.307292,1.486031 c 0,-0.744672 -0.06953,-0.79878 -1.124479,-0.875109 l -1.12448,-0.08136 v 0.956468 0.956468 l 1.12448,-0.08136 c 1.054952,-0.07633 1.124479,-0.130437 1.124479,-0.875109 z m -0.264584,-2.910417 c 0,-0.726234 -0.08439,-0.800734 -0.992187,-0.875867 -0.978961,-0.08102 -0.992188,-0.06935 -0.992188,0.875867 0,0.945215 0.01323,0.956891 0.992188,0.875868 0.907793,-0.07513 0.992187,-0.149633 0.992187,-0.875868 z m 3.042709,1.455209 v -3.439583 h 1.852083 c 1.675694,0 1.852083,0.0504 1.852083,0.529166 0,0.450772 -0.176389,0.529167 -1.190625,0.529167 -1.184325,0 -1.190625,0.0049 -1.190625,0.926041 0,0.903993 0.0252,0.926042 1.058334,0.926042 0.881944,0 1.058333,0.08819 1.058333,0.529167 0,0.440972 -0.176389,0.529166 -1.058333,0.529166 -1.033135,0 -1.058334,0.02205 -1.058334,0.926042 v 0.926042 h 1.322917 c 1.146528,0 1.322917,0.07055 1.322917,0.529165 0,0.48213 -0.176389,0.52917 -1.984375,0.52917 h -1.984375 z m 5.622396,3.263975 c -0.347845,-0.0735 -0.595313,-0.32196 -0.595313,-0.597705 0,-0.404096 0.182112,-0.454427 1.267038,-0.35018 0.95547,0.09181 1.354821,0.01598 1.624016,-0.308385 0.303301,-0.365455 0.286564,-0.507937 -0.111308,-0.94758 -0.257556,-0.284597 -0.720473,-0.593705 -1.028703,-0.686906 -1.40341,-0.424355 -2.072133,-1.660129 -1.488491,-2.750674 0.579538,-1.082877 3.706198,-1.345748 3.706198,-0.311595 0,0.360798 -0.213332,0.426938 -1.139492,0.353277 -0.791012,-0.06291 -1.243012,0.0341 -1.477987,0.317233 -0.457737,0.55154 -0.216221,0.856093 1.280269,1.614422 0.699146,0.354284 1.345564,0.838008 1.436484,1.074942 0.298496,0.777867 0.173424,1.621068 -0.304624,2.053691 -0.504537,0.4566 -2.196559,0.74472 -3.168087,0.53946 z m 5.22552,-3.263975 c 0,-3.263195 0.02714,-3.439583 0.529167,-3.439583 0.50203,0 0.529167,0.176388 0.529167,3.439583 0,3.263195 -0.02714,3.439585 -0.529167,3.439585 -0.50203,0 -0.529167,-0.17639 -0.529167,-3.439585 z m 2.910417,0 c 0,-3.263195 0.02714,-3.439583 0.529167,-3.439583 0.47037,0 0.529166,0.176388 0.529166,1.587499 0,0.873125 0.0893,1.584333 0.198438,1.580462 0.10914,-0.0039 0.704161,-0.718246 1.322268,-1.5875 0.873959,-1.229064 1.274945,-1.580461 1.803492,-1.580461 0.669207,0 0.661076,0.02366 -0.528517,1.53782 -0.6645,0.845801 -1.208181,1.628751 -1.208181,1.739888 0,0.111138 0.535782,0.898356 1.190625,1.749375 0.654844,0.851018 1.190625,1.615885 1.190625,1.699695 0,0.0838 -0.274693,0.15239 -0.610428,0.15239 -0.447811,0 -0.958826,-0.47515 -1.918229,-1.783581 l -1.307801,-1.783579 -0.07823,1.783579 c -0.06872,1.566601 -0.141138,1.783581 -0.595312,1.783581 -0.486532,0 -0.517078,-0.2032 -0.517078,-3.439585 z m 7.672917,0.529166 v -2.910416 h -1.058334 c -0.881944,0 -1.058333,-0.08819 -1.058333,-0.529167 0,-0.492032 0.176389,-0.529166 2.513542,-0.529166 2.337152,0 2.513541,0.03713 2.513541,0.529166 0,0.428373 -0.176389,0.529167 -0.926041,0.529167 h -0.926042 v 2.910416 c 0,2.734029 -0.03207,2.910419 -0.529167,2.910419 -0.497096,0 -0.529166,-0.17639 -0.529166,-2.910419 z m 4.233333,-0.529166 v -3.439583 h 0.630731 c 0.506289,0 0.963057,0.50897 2.315104,2.579687 l 1.684373,2.579687 0.07573,-2.579687 c 0.06933,-2.361734 0.119626,-2.579687 0.595313,-2.579687 0.489746,0 0.519585,0.19753 0.519585,3.439583 0,3.430465 -0.0016,3.439585 -0.619558,3.439585 -0.49139,0 -0.970314,-0.53366 -2.315104,-2.579689 l -1.695546,-2.579688 -0.07573,2.579688 c -0.06933,2.361729 -0.119626,2.579689 -0.595313,2.579689 -0.489746,0 -0.519585,-0.19753 -0.519585,-3.439585 z m 7.672917,0 c 0,-3.263195 0.02714,-3.439583 0.529166,-3.439583 0.50203,0 0.529167,0.176388 0.529167,3.439583 0,3.263195 -0.02714,3.439585 -0.529167,3.439585 -0.50203,0 -0.529166,-0.17639 -0.529166,-3.439585 z m 2.910416,0 v -3.439583 h 0.647879 c 0.528892,0 0.954072,0.472998 2.315104,2.575476 l 1.667225,2.575477 0.07573,-2.575477 c 0.06932,-2.357549 0.119693,-2.575476 0.595313,-2.575476 0.489746,0 0.519585,0.19753 0.519585,3.439583 0,3.391075 -0.0084,3.439555 -0.595312,3.437935 -0.463548,-0.001 -0.946181,-0.55762 -2.180537,-2.513542 -0.871873,-1.381541 -1.675545,-2.511893 -1.785937,-2.511893 -0.110393,0 -0.200714,1.131094 -0.200714,2.513541 0,2.337154 -0.03713,2.513544 -0.529166,2.513544 -0.50203,0 -0.529167,-0.17639 -0.529167,-3.439585 z m 9.122737,2.955535 c -2.559891,-1.188861 -2.206788,-5.172659 0.53867,-6.077409 1.35295,-0.445858 3.038593,-0.190421 3.038593,0.460458 0,0.401607 -0.187106,0.449093 -1.334947,0.3388 -1.12178,-0.107789 -1.435074,-0.03421 -1.961989,0.460804 -0.813743,0.764472 -1.032537,1.694851 -0.662352,2.816524 0.349009,1.057508 0.923843,1.426538 2.222102,1.426538 0.871873,0 0.943436,-0.06021 0.943436,-0.79375 0,-0.670278 -0.102893,-0.79375 -0.661458,-0.79375 -0.48507,0 -0.661459,-0.141111 -0.661459,-0.529167 0,-0.450772 0.176389,-0.529167 1.190625,-0.529167 h 1.190625 v 1.571885 c 0,0.864537 -0.0893,1.626854 -0.198437,1.694034 -0.706386,0.43479 -2.661502,0.41022 -3.643409,-0.0458 z m 4.966668,0.15332 c 2.541101,-6.826908 2.40909,-6.54847 3.104361,-6.547737 0.60924,6.42e-4 0.76644,0.273346 1.85623,3.220023 0.65485,1.770627 1.23032,3.318124 1.27882,3.438884 0.0485,0.12076 -0.19328,0.21956 -0.5373,0.21956 -0.45203,0 -0.70859,-0.22013 -0.92511,-0.793752 -0.28164,-0.746148 -0.38478,-0.79375 -1.71979,-0.79375 -1.335016,0 -1.438154,0.0476 -1.719793,0.79375 -0.207487,0.549692 -0.47808,0.793752 -0.880064,0.793752 -0.353632,0 -0.532352,-0.12924 -0.457354,-0.33073 z m 3.582471,-3.942777 -0.54967,-1.627671 -0.487415,1.561526 c -0.268078,0.858839 -0.489168,1.591291 -0.491311,1.627671 -0.0021,0.03638 0.464546,0.06615 1.037086,0.06615 h 1.04099 z m 3.75937,0.833922 v -3.439583 h 1.33142 c 0.73228,0 1.74431,0.172518 2.24896,0.383374 0.83042,0.346971 0.91754,0.483977 0.91754,1.442856 0,0.799652 -0.15098,1.173369 -0.61565,1.523867 l -0.61565,0.464384 1.01139,1.333905 c 1.17673,1.551982 1.22154,1.735792 0.41835,1.716412 -0.41223,-0.01 -0.83943,-0.39646 -1.38906,-1.256769 -0.49289,-0.771489 -1.0194,-1.274451 -1.38907,-1.326952 -0.55019,-0.07814 -0.59531,0.01711 -0.59531,1.25677 0,1.254351 -0.0429,1.341321 -0.66146,1.341321 h -0.66146 z m 3.27926,-0.859896 c 0.42237,-0.674569 -0.10906,-1.371067 -1.12313,-1.471972 -0.81335,-0.08093 -0.83321,-0.05688 -0.83321,1.008951 0,1.065833 0.0199,1.089884 0.83321,1.008951 0.45827,-0.0456 0.96368,-0.291269 1.12313,-0.54593 z m 6.84106,4.124171 c -0.34773,-0.0737 -0.59532,-0.32235 -0.59532,-0.598005 0,-0.404096 0.18212,-0.454427 1.26704,-0.35018 0.93806,0.09014 1.35616,0.01436 1.61028,-0.291832 0.45905,-0.553122 0.25612,-0.811518 -1.30435,-1.660832 -1.9617,-1.067688 -2.16278,-2.524006 -0.46322,-3.354741 1.2075,-0.590217 2.859,-0.392414 2.859,0.342427 0,0.393835 -0.17825,0.447128 -1.13488,0.339302 -0.83584,-0.09421 -1.22783,-0.01593 -1.48761,0.297084 -0.44617,0.537605 -0.0434,1.092729 1.15672,1.594159 2.5413,1.061825 2.27139,3.422898 -0.42447,3.713108 -0.48833,0.0526 -1.15577,0.0388 -1.48319,-0.0305 z m 6.67488,-0.15542 c -0.70594,-1.921083 -2.24311,-6.338799 -2.24311,-6.446533 0,-0.07629 0.25856,-0.100663 0.57459,-0.05416 0.47472,0.06985 0.73568,0.567388 1.50146,2.862673 l 0.92687,2.778125 0.93693,-2.844271 c 0.82488,-2.504138 1.00865,-2.84427 1.53679,-2.84427 0.5927,0 0.58568,0.04025 -0.5863,3.363399 -0.6524,1.84987 -1.18618,3.397677 -1.18618,3.439577 0,0.25353 -1.36152,0.0163 -1.46105,-0.25454 z m 4.90064,-3.108855 v -3.439583 h 1.85208 c 1.67569,0 1.85208,0.0504 1.85208,0.529166 0,0.458611 -0.17639,0.529167 -1.32291,0.529167 h -1.32292 v 0.926041 c 0,0.921142 0.006,0.926042 1.19063,0.926042 1.01423,0 1.19062,0.0784 1.19062,0.529167 0,0.450771 -0.17639,0.529166 -1.19062,0.529166 -1.18433,0 -1.19063,0.0049 -1.19063,0.926042 v 0.926042 h 1.32292 c 1.14652,0 1.32291,0.07055 1.32291,0.529165 0,0.47877 -0.17639,0.52917 -1.85208,0.52917 h -1.85208 z m 5.29166,-0.03622 v -3.475808 l 1.73258,0.139074 c 1.12745,0.0905 1.91292,0.302291 2.24895,0.606398 0.71756,0.649379 0.66098,1.864078 -0.12056,2.588387 l -0.63696,0.59031 0.78995,1.050702 c 1.31921,1.754682 1.39258,1.976742 0.65314,1.976742 -0.48224,0 -0.8556,-0.33103 -1.4921,-1.322915 -0.63088,-0.983144 -1.01171,-1.322916 -1.48279,-1.322916 -0.58426,0 -0.63387,0.103544 -0.63387,1.322916 0,1.146525 -0.0706,1.322915 -0.52917,1.322915 -0.50231,0 -0.52917,-0.17639 -0.52917,-3.475805 z m 3.04271,-1.286693 c 0,-0.879105 -0.0503,-0.930204 -0.99219,-1.008159 l -0.99218,-0.08212 v 1.090276 1.090277 l 0.99218,-0.08212 c 0.9419,-0.07796 0.99219,-0.129054 0.99219,-1.008159 z m 3.30729,1.322917 c 0,-3.263195 0.0271,-3.439583 0.52917,-3.439583 0.50203,0 0.52917,0.176388 0.52917,3.439583 0,3.263191 -0.0271,3.439581 -0.52917,3.439581 -0.50203,0 -0.52917,-0.17639 -0.52917,-3.439581 z m 4.66793,3.175791 c -1.04149,-0.32348 -1.68427,-0.961557 -2.03295,-2.018076 -0.83385,-2.526586 1.45359,-4.880553 4.30028,-4.425349 0.70524,0.112773 1.00224,0.293904 1.00224,0.611239 0,0.384143 -0.2128,0.433325 -1.43606,0.331883 -1.2738,-0.105634 -1.51295,-0.04219 -2.11666,0.561518 -0.87416,0.874162 -0.9289,2.434312 -0.12143,3.46085 0.47168,0.599639 0.73046,0.698384 1.65365,0.630994 0.97383,-0.07109 1.10369,-0.16009 1.17818,-0.807496 0.0752,-0.653764 0.001,-0.727604 -0.7276,-0.727604 -0.63494,0 -0.81133,-0.115046 -0.81133,-0.529167 0,-0.458611 0.17639,-0.529167 1.32292,-0.529167 h 1.32292 v 1.569671 c 0,1.704394 -0.006,1.710614 -1.85209,1.973614 -0.50932,0.0725 -1.26625,0.0262 -1.68207,-0.10291 z m 5.12166,-3.175791 v -3.439583 h 1.85208 c 1.67569,0 1.85208,0.0504 1.85208,0.529166 0,0.458611 -0.17639,0.529167 -1.32291,0.529167 h -1.32292 v 0.926041 c 0,0.921142 0.006,0.926042 1.19063,0.926042 1.01423,0 1.19062,0.0784 1.19062,0.529167 0,0.450771 -0.17639,0.529166 -1.19062,0.529166 -1.18433,0 -1.19063,0.0049 -1.19063,0.926042 v 0.926042 h 1.32292 c 1.14652,0 1.32291,0.07055 1.32291,0.529161 0,0.47877 -0.17639,0.52917 -1.85208,0.52917 h -1.85208 z m 8.00399,3.108851 c 2.5411,-6.826904 2.40909,-6.548466 3.10436,-6.547733 0.60923,6.42e-4 0.76644,0.273346 1.85623,3.220023 0.65484,1.770627 1.23031,3.31812 1.27882,3.43888 0.0485,0.12076 -0.19328,0.21956 -0.53731,0.21956 -0.45203,0 -0.70859,-0.22013 -0.9251,-0.793748 -0.28164,-0.746148 -0.38478,-0.79375 -1.7198,-0.79375 -1.33501,0 -1.43815,0.0476 -1.71979,0.79375 -0.20748,0.549688 -0.47808,0.793748 -0.88006,0.793748 -0.35363,0 -0.53235,-0.12924 -0.45735,-0.33073 z m 3.58247,-3.942773 -0.54967,-1.627671 -0.48742,1.561526 c -0.26808,0.858839 -0.48917,1.591291 -0.49131,1.627671 -0.002,0.03638 0.46455,0.06615 1.03709,0.06615 h 1.04098 z m 3.75937,0.869473 v -3.475134 h 1.30569 c 1.40346,0 2.6621,0.369638 2.98435,0.876448 0.39914,0.627711 0.19254,1.478458 -0.48926,2.014765 -0.44046,0.346459 -0.55297,0.54837 -0.30559,0.54837 0.58572,0 1.26731,0.87852 1.26731,1.633472 0,1.097939 -0.82871,1.595749 -2.9036,1.744209 l -1.8589,0.133 z m 3.45799,1.926646 c 0.52591,-0.633679 -0.0255,-1.285527 -1.16968,-1.382856 -0.94541,-0.08042 -0.96539,-0.06262 -0.96539,0.859895 0,0.893693 0.0458,0.942014 0.89364,0.942014 0.49259,0 1.04973,-0.188064 1.24143,-0.419053 z M 166.0953,95.82529 c 0,-0.702116 -0.0993,-0.803321 -0.8599,-0.876659 -0.82731,-0.07977 -0.85989,-0.04655 -0.85989,0.876659 0,0.923209 0.0326,0.956428 0.85989,0.87666 0.76063,-0.07334 0.8599,-0.174543 0.8599,-0.87666 z M 45.180716,85.190724 c -0.436562,-0.05733 -1.656953,-0.354491 -2.711979,-0.660358 l -1.918229,-0.556123 v -3.007974 -3.007974 l 1.521354,0.76781 c 2.347764,1.18489 4.149478,1.621688 6.662605,1.615246 3.499899,-0.009 5.045207,-0.901405 5.045207,-2.91367 0,-1.281682 -1.304192,-2.395841 -3.96875,-3.390463 -3.087478,-1.15249 -5.806886,-2.485684 -6.835241,-3.350988 -1.684144,-1.417113 -2.485225,-4.185341 -2.050358,-7.085243 0.385115,-2.56813 2.743574,-4.845482 6.239766,-6.025182 2.26708,-0.764967 6.859864,-0.835171 9.855729,-0.150651 l 2.050521,0.46852 v 2.853752 2.853752 L 57.81457,63.002395 c -3.69587,-1.760881 -8.902261,-1.443249 -9.833183,0.599904 -0.928048,2.036843 0.367949,3.392705 4.877879,5.103197 5.597569,2.123003 7.406541,3.850864 7.726562,7.380115 0.510463,5.629473 -4.361437,9.352274 -12.09782,9.244397 -1.382448,-0.01928 -2.870729,-0.08196 -3.307292,-0.139284 z m 24.297337,-0.288925 c -2.451311,-0.878155 -4.108814,-2.557189 -4.853666,-4.916714 -0.195297,-0.618657 -0.279591,-1.933757 -0.213095,-3.324577 0.09355,-1.956635 0.230922,-2.516261 0.917821,-3.738964 1.651188,-2.939167 3.841088,-3.937022 10.940145,-4.985013 l 4.894791,-0.722588 -0.07417,-1.134963 c -0.130707,-2.000113 -1.203109,-3.389167 -3.081564,-3.991469 -2.30058,-0.737651 -7.003028,0.15526 -9.742703,1.849966 l -1.256771,0.777412 V 61.93829 59.161691 l 1.256771,-0.539624 c 2.321483,-0.996783 5.587618,-1.628015 8.532812,-1.649101 4.153303,-0.02973 6.728016,0.892437 8.671349,3.105772 2.233386,2.543686 2.43248,3.794127 2.43724,15.307487 l 0.0039,9.458854 H 84.603621 81.29633 v -1.96876 c 0,-1.082818 -0.119063,-2.042345 -0.264584,-2.132282 -0.14552,-0.08994 -0.264583,-0.05031 -0.264583,0.08806 0,0.606124 -2.519679,2.983455 -3.854014,3.636284 -1.95729,0.957613 -5.410015,1.158883 -7.435107,0.433417 z m 7.073587,-4.847755 c 2.731711,-0.585847 4.441583,-2.912543 4.678284,-6.365942 0.166473,-2.428798 0.549839,-2.262526 -3.871935,-1.679324 -4.932855,0.65061 -6.377348,1.682876 -6.379409,4.558865 -8.36e-4,1.166696 0.125782,1.524241 0.819644,2.314505 1.192902,1.358641 2.444202,1.667134 4.753416,1.171896 z m 73.66866,5.156377 c -2.58322,-0.647123 -4.3373,-1.964863 -5.3438,-4.014498 -0.6551,-1.334028 -0.74138,-1.803464 -0.7396,-4.023761 0.002,-3.060368 0.55661,-4.409825 2.5451,-6.197646 1.81313,-1.630161 3.53959,-2.198501 9.22684,-3.037424 l 4.89479,-0.722027 -0.0414,-1.222625 c -0.0863,-2.546994 -1.64862,-3.913987 -4.68772,-4.101608 -2.47127,-0.152566 -5.04351,0.460077 -7.50406,1.787278 l -1.92201,1.03672 v -2.780668 -2.780667 l 0.99219,-0.417896 c 1.78154,-0.750361 4.24725,-1.362354 6.76645,-1.679448 5.55479,-0.699184 10.04792,1.036246 11.86016,4.580874 1.19209,2.33164 1.27683,3.224283 1.28015,13.484616 l 0.003,9.723438 h -3.30729 -3.3073 l -0.0124,-2.182813 -0.0124,-2.182812 -0.71518,0.926041 c -2.0767,2.68898 -4.12499,3.770773 -7.32977,3.871175 -1.16416,0.03647 -2.35479,0.0067 -2.64583,-0.06625 z m 7.79821,-5.86945 c 0.68833,-0.423123 1.51124,-1.257487 1.96653,-1.993895 0.66406,-1.074093 0.80068,-1.605168 0.90007,-3.498735 0.13714,-2.612922 0.54102,-2.423659 -3.91716,-1.835656 -4.63214,0.610948 -6.08828,1.588029 -6.28155,4.214992 -0.1259,1.711288 0.56367,2.887789 2.11905,3.615382 1.50161,0.702437 3.57906,0.50235 5.21306,-0.502088 z M 95.319257,64.604454 V 44.36383 h 3.569358 3.569355 l 0.0687,12.898437 0.0687,12.898437 4.48514,-6.180345 c 2.46682,-3.39919 4.61495,-6.230159 4.77361,-6.291042 0.15866,-0.06088 2.10361,-0.0777 4.32212,-0.03736 l 4.03365,0.07333 -5.25739,6.345102 -5.25739,6.345102 5.78163,7.214793 5.78163,7.214794 -4.43671,-0.0073 -4.43671,-0.0073 -4.89479,-6.804672 -4.89479,-6.804672 -0.0706,6.811946 -0.0706,6.811946 h -3.567404 -3.567409 z m 29.633333,6.614583 V 57.592996 h 3.57188 3.57187 l 0.008,2.711979 0.008,2.711979 0.60582,-1.235842 c 1.74913,-3.568159 4.62108,-5.231944 7.95238,-4.606989 l 0.95025,0.178268 v 3.264125 3.264124 l -0.99219,-0.354084 c -3.25648,-1.162147 -6.28076,0.222005 -7.84705,3.59144 -0.51782,1.113945 -0.55882,1.723123 -0.63663,9.458854 l -0.0832,8.268229 H 128.50686 124.952 Z M 69.814568,52.555745 c -1.895241,-0.567145 -2.905706,-2.573891 -2.175743,-4.320939 0.731348,-1.750362 3.128282,-2.52026 5.032756,-1.616528 2.612254,1.239596 2.2253,5.15746 -0.586517,5.938419 -1.117497,0.310375 -1.230288,0.310328 -2.270496,-9.52e-4 z m 11.569856,-0.01557 c -2.653801,-0.768314 -3.003931,-4.714317 -0.522773,-5.891704 1.641242,-0.77882 3.367685,-0.477268 4.545867,0.794013 0.503075,0.542826 0.651323,0.990484 0.651323,1.966769 0,1.554646 -0.881708,2.744611 -2.332111,3.147449 -1.120533,0.311219 -1.212497,0.31057 -2.342306,-0.01653 z"
         id="path13" /></g><path
       style="fill:#ffffff;stroke-width:0.537037"
       d="M 102.30563,576.50965 V 454.06512 H 370.55581 638.80599 V 576.50965 698.95418 H 370.55581 102.30563 Z m 23.62964,-0.53704 V 468.56513 h -6.71297 -6.71296 V 575.97261 683.3801 h 6.71296 6.71297 z m 32.33513,106.16453 c 2.20788,-0.92251 3.50776,-2.57386 3.97138,-5.0452 0.44917,-2.39428 -0.0204,-3.85446 -1.9304,-6.00222 -1.88462,-2.11927 -1.88075,-2.10195 -0.74776,-3.35389 1.34744,-1.4889 1.61818,-5.66111 0.50187,-7.73397 -1.36536,-2.53532 -3.00715,-3.05241 -10.63483,-3.3495 l -6.84723,-0.2667 v 13.57831 13.5783 l 6.89604,-0.3067 c 4.19001,-0.18634 7.6396,-0.61737 8.79093,-1.09843 z m 21.90565,0.76463 c 1.68415,-0.46571 2.13377,-2.64465 0.75391,-3.65362 -0.58216,-0.42569 -2.50208,-0.70139 -4.88434,-0.70139 h -3.92513 v -2.94348 c 0,-3.3405 0.0583,-3.3799 5.37037,-3.63027 l 2.95371,-0.13922 v -1.87963 -1.87963 l -2.95371,-0.13922 c -5.36423,-0.25283 -5.44794,-0.30854 -5.26358,-3.50291 l 0.16173,-2.80232 4.16189,-0.29522 c 4.51867,-0.32054 5.42283,-0.79633 5.14747,-2.70879 -0.24156,-1.67771 -1.59841,-1.98003 -9.1751,-2.04431 l -6.31019,-0.0535 v 13.42593 13.42594 l 6.31019,-0.0535 c 3.4706,-0.0294 6.91435,-0.2206 7.65278,-0.42479 z m 18.26737,-0.93017 c 3.02789,-1.21152 4.2882,-3.00522 4.2882,-6.10304 0,-3.58485 -1.57475,-5.62576 -6.39251,-8.28483 -4.704,-2.59628 -5.65745,-3.75397 -4.07972,-4.95362 1.06975,-0.8134 4.30299,-0.76876 7.9213,0.10936 1.41917,0.34441 1.47653,0.27731 1.46863,-1.71808 -0.005,-1.14207 -0.21103,-2.39637 -0.4589,-2.78732 -0.71835,-1.13301 -4.84556,-1.79735 -8.64893,-1.39218 -3.08317,0.32845 -3.74217,0.61069 -5.48338,2.34848 -4.49381,4.48497 -3.20074,8.17015 4.63729,13.21608 4.27879,2.75457 5.0025,3.65573 3.95222,4.92123 -0.65996,0.79521 -3.79818,0.73726 -9.16138,-0.16917 l -2.01389,-0.34037 0.008,2.34116 c 0.005,1.28764 0.18789,2.62359 0.40747,2.96877 0.90967,1.42998 9.84832,1.3268 13.55538,-0.15647 z m 14.49191,-12.01744 v -13.42593 h -3.22222 -3.22223 v 13.42593 13.42594 h 3.22223 3.22222 z m 10.18063,12.64818 c 0.35502,-0.42776 0.80753,-2.83611 1.00558,-5.35189 l 0.36009,-4.57415 3.21749,4.62786 c 2.20425,3.17047 3.7632,4.85588 4.95035,5.3519 1.94047,0.81078 6.60069,0.98451 6.60069,0.24608 0,-0.59795 -4.24107,-6.40915 -7.33616,-10.05217 -1.28178,-1.5087 -2.33051,-2.98755 -2.33051,-3.28634 0,-0.64686 3.71856,-5.51035 6.35867,-8.31646 1.62666,-1.72892 1.95765,-1.88243 2.48979,-1.1547 0.40538,0.5544 1.83344,0.93723 4.20671,1.12773 l 3.59299,0.28841 v 10.93574 10.93575 h 3.22222 3.22223 v -11.00927 -11.00927 l 2.28241,-0.007 c 3.94604,-0.0127 4.77931,-0.43767 4.59361,-2.34289 -0.21933,-2.2502 -0.81497,-2.34265 -15.58901,-2.41958 l -12.20374,-0.0635 -3.63887,4.96018 -3.63887,4.96019 -0.38218,-4.20906 c -0.21021,-2.31497 -0.66271,-4.54706 -1.00557,-4.96018 -0.37813,-0.45562 -1.65394,-0.75113 -3.24282,-0.75113 h -2.61943 v 13.42593 13.42594 h 2.61943 c 1.6316,0 2.86285,-0.29331 3.2649,-0.77776 z m 45.79188,-7.62606 0.1479,-8.40381 5.00272,7.64034 c 5.41285,8.26669 6.47607,9.16729 10.82263,9.16729 h 2.1654 v -13.42594 -13.42593 h -3.22222 -3.22223 l -0.0728,1.74537 c -0.0401,0.95995 -0.2213,4.5915 -0.40278,8.07011 l -0.32996,6.32473 -4.80582,-7.33655 c -5.18796,-7.91993 -6.24022,-8.80366 -10.4825,-8.80366 h -2.1654 v 13.42593 13.42594 h 3.20859 3.20858 z m 28.8794,-5.02212 v -13.42593 h -3.22222 -3.22223 v 13.42593 13.42594 h 3.22223 3.22222 z m 11.27779,4.83334 0.26851,-8.32408 1.56115,2.41667 c 8.17469,12.65451 8.3979,12.95367 10.23902,13.72293 1.02289,0.42739 2.71339,0.77708 3.75667,0.77708 h 1.89688 v -13.42594 -13.42593 h -3.22222 -3.22223 v 4.48604 c 0,2.46732 -0.15558,5.97462 -0.34575,7.79399 l -0.34575,3.30796 -3.9863,-6.04863 c -5.46876,-8.29805 -6.34193,-9.11654 -10.05381,-9.42436 l -2.99062,-0.24801 v 13.51924 13.51924 l 3.08796,-0.16107 3.08797,-0.16105 z m 43.36577,7.20652 c 1.13754,-0.74074 1.20833,-1.14902 1.20833,-6.96917 v -6.18234 l -5.50463,0.15305 c -5.47508,0.15222 -5.5055,0.1605 -5.66605,1.54161 -0.1928,1.65856 0.66477,2.47978 2.8466,2.72595 1.31298,0.14814 1.64314,0.46108 1.78418,1.69111 0.23556,2.05443 -0.74564,3.05549 -2.99488,3.05549 -5.74356,0 -8.95123,-6.70476 -5.7891,-12.10054 2.24865,-3.83703 5.88356,-4.74239 12.70241,-3.16383 1.18179,0.27359 1.46057,0.10933 1.74624,-1.02888 0.50574,-2.015 -0.47177,-4.02102 -2.19374,-4.50195 -2.88969,-0.80706 -10.35584,-0.24562 -12.86105,0.96714 -8.95808,4.33652 -9.60617,18.95037 -1.03877,23.42302 3.51914,1.83719 13.17084,2.07561 15.76046,0.38934 z m 8.41264,0.90746 c 0.56561,-0.22172 1.53552,-1.47349 2.15536,-2.7817 l 1.12698,-2.37858 h 4.5404 4.5404 l 0.59977,2.14815 c 0.37638,1.34807 1.08286,2.39523 1.89683,2.81153 1.67835,0.85838 5.86189,0.89237 5.86189,0.0476 0,-0.8768 -7.41511,-20.65775 -8.67951,-23.15396 -1.13732,-2.24531 -2.68975,-3.06632 -5.798,-3.06632 -1.45779,0 -2.16417,0.27336 -2.42855,0.93981 -1.13147,2.85225 -9.40877,25.40691 -9.40877,25.63777 0,0.41622 4.4223,0.25466 5.5932,-0.20433 z m 28.04905,0.0676 c 0.33795,-0.21701 0.78608,-2.2336 0.99586,-4.48132 0.54215,-5.80919 0.87472,-6.09481 3.62968,-3.1174 1.2532,1.35438 3.24876,3.62562 4.4346,5.04719 2.03345,2.4377 2.33121,2.59921 5.23611,2.84011 1.88405,0.15624 3.08006,0.0448 3.08006,-0.28693 0,-0.55215 -2.93068,-5.00397 -6.00072,-9.11532 l -1.69853,-2.27466 1.90284,-1.84801 c 2.19902,-2.13566 2.88288,-4.69332 2.06602,-7.72692 -1.14861,-4.26561 -3.89509,-5.41333 -13.05203,-5.45423 l -5.23612,-0.0234 v 13.42593 13.42594 l 2.01389,-0.008 c 1.10764,-0.005 2.29039,-0.18577 2.62834,-0.40277 z m 44.91525,-1.03464 c 1.02527,-0.58629 2.24848,-2.0317 3.00382,-3.54947 1.24406,-2.4998 1.25293,-2.61621 0.37446,-4.91646 -0.95531,-2.50141 -2.82035,-4.21012 -6.75054,-6.18464 -6.3809,-3.20576 -5.6743,-6.10263 1.25323,-5.13787 5.1627,0.71898 4.93046,0.79315 4.85309,-1.54995 -0.0988,-2.99242 -1.10754,-3.53097 -6.61174,-3.52997 -6.94093,10e-4 -10.54937,2.40285 -10.43035,6.94189 0.0657,2.50532 2.61698,6.45775 4.83611,7.49204 4.27359,1.99183 5.06914,2.44547 5.9013,3.36499 0.84647,0.93535 0.83903,1.06625 -0.12118,2.13139 -0.89812,0.99626 -1.41654,1.09619 -4.24528,0.81836 -1.77222,-0.17407 -3.87567,-0.46912 -4.67432,-0.65568 -1.21827,-0.28457 -1.50045,-0.1353 -1.75243,0.92702 -0.16519,0.69641 -0.0997,1.99121 0.14553,2.87732 0.37151,1.34238 0.79819,1.67118 2.55799,1.97124 3.59866,0.61359 9.76283,0.0848 11.66031,-1.00021 z m 20.40864,0.50114 c 0.71384,-0.78878 9.51542,-24.41431 9.51542,-25.54164 0,-0.20115 -1.06602,-0.36573 -2.36893,-0.36573 -3.38888,0 -4.52692,1.62112 -7.58994,10.81178 l -2.54234,7.62837 -2.58089,-7.34169 c -3.70372,-10.53577 -4.11129,-11.07306 -8.41329,-11.09113 -1.16868,-0.005 -1.74537,0.24952 -1.74537,0.77005 0,0.85963 7.15318,21.03875 8.42282,23.7608 0.44908,0.96277 1.30883,1.81344 1.9615,1.94076 2.70016,0.5267 4.5237,0.33155 5.34102,-0.57157 z m 25.89506,0.47563 c 1.25262,-0.26574 1.64892,-0.66978 1.78102,-1.81583 0.22104,-1.91767 -1.35867,-2.54864 -6.3808,-2.54864 h -3.7243 v -2.57778 c 0,-1.41778 0.29,-2.86778 0.64444,-3.22223 0.36038,-0.36037 2.08848,-0.64444 3.92038,-0.64444 3.50272,0 4.56481,-0.57391 4.56481,-2.46662 0,-1.4457 -0.91824,-1.82968 -4.37552,-1.82968 -3.74564,0 -4.75597,-0.6614 -4.74589,-3.10686 0.005,-1.09725 0.18577,-2.269 0.40278,-2.60389 0.217,-0.3349 2.27957,-0.70271 4.58347,-0.81735 4.05597,-0.20184 5.19279,-0.71259 5.19279,-2.33302 0,-1.8713 -0.98313,-2.13147 -8.82013,-2.33412 l -7.81158,-0.20199 v 13.48566 13.48566 l 6.57871,-0.0635 c 3.61829,-0.0349 7.30371,-0.21735 8.18982,-0.40533 z m 10.79332,0.0579 c 0.32428,-0.21701 0.74829,-2.31691 0.94225,-4.66645 0.19395,-2.34953 0.54264,-4.46187 0.77486,-4.69409 0.73818,-0.73819 2.63952,1.06894 5.23952,4.9799 2.7233,4.09641 3.82355,4.79164 7.58323,4.79164 2.90448,0 2.90476,0.002 -0.79748,-5.50296 -4.23586,-6.29827 -4.15854,-6.00307 -2.20804,-8.4302 2.17859,-2.71096 2.60703,-5.95268 1.13959,-8.62242 -1.75878,-3.19978 -3.53605,-3.84918 -11.40801,-4.16846 l -6.95739,-0.28218 v 13.50311 13.50311 l 2.55093,-0.008 c 1.40301,-0.005 2.81625,-0.18577 3.14054,-0.40277 z m 24.91967,-13.01494 v -13.42593 h -3.22223 -3.22222 v 13.42593 13.42594 h 3.22222 3.22223 z m 24.73902,12.33297 c 1.6387,-0.87701 2.11285,-2.75284 2.11285,-8.35894 v -5.08568 l -5.50464,0.15305 -5.50463,0.15304 -0.17727,1.55284 c -0.20159,1.766 0.56484,2.45472 2.74505,2.46672 1.76075,0.01 2.36728,1.15612 1.66626,3.14946 -0.7786,2.21395 -2.82062,2.61921 -5.83788,1.15859 -3.25209,-1.57431 -4.23341,-3.68671 -3.92956,-8.45872 0.18845,-2.95943 0.43637,-3.61242 1.9444,-5.12115 1.61642,-1.61718 1.96267,-1.72654 5.34389,-1.68785 1.98852,0.0228 4.62195,0.23306 5.85208,0.46734 2.08681,0.39745 2.24934,0.34073 2.42687,-0.84692 0.30869,-2.06506 -0.16057,-3.68492 -1.23389,-4.25935 -1.64928,-0.88267 -9.10129,-1.23195 -11.62645,-0.54495 -2.54901,0.6935 -5.44288,2.99834 -7.73789,6.1629 -1.4189,1.9565 -1.51895,2.4376 -1.51895,7.30369 0,4.9004 0.0927,5.33716 1.56336,7.36737 1.84623,2.54866 4.35018,4.43805 6.68805,5.04657 2.20383,0.57364 11.32967,0.13054 12.72835,-0.61801 z m 21.99955,0.0109 c 0.63768,-1.00855 0.63649,-1.66243 -0.005,-2.67718 -0.37029,-0.58584 -1.75958,-0.8572 -5.09364,-0.99492 l -4.58446,-0.18937 v -2.56432 c 0,-1.437 0.30416,-2.81675 0.69189,-3.13854 0.38054,-0.31582 2.22833,-0.64749 4.1062,-0.73705 3.78916,-0.18072 5.13448,-1.18264 4.00444,-2.98228 -0.44019,-0.70103 -1.45765,-0.98119 -4.00444,-1.10266 -4.30566,-0.20534 -4.89339,-0.68381 -4.6897,-3.8179 l 0.16013,-2.46371 4.49034,-0.33357 c 4.34059,-0.32244 5.41463,-0.80055 5.43663,-2.42012 0.022,-1.62371 -1.83739,-2.08143 -9.20299,-2.26541 l -7.43695,-0.18575 v 13.53715 13.53716 l 7.81158,-0.20199 c 6.16418,-0.1594 7.91793,-0.37019 8.31586,-0.99954 z m 20.14699,-0.2361 c 0.725,-0.725 1.31819,-1.61222 1.31819,-1.9716 0,-0.35938 0.39995,-1.09537 0.88879,-1.63552 0.70476,-0.77876 1.6919,-0.98211 4.76757,-0.98211 4.23889,0 4.73516,0.28995 5.34063,3.12018 0.25647,1.19885 0.81257,1.94193 1.70809,2.2824 1.36169,0.51772 6.09123,0.70975 6.09123,0.24732 0,-0.70178 -7.81777,-21.28527 -8.90152,-23.43691 -1.33542,-2.65128 -2.2512,-3.14201 -5.86701,-3.1439 l -2.14815,-10e-4 -4.69908,12.79277 c -2.58449,7.03602 -4.69908,13.0749 -4.69908,13.41972 0,0.38596 0.93832,0.62696 2.44108,0.62696 1.87571,0 2.74638,-0.3053 3.75926,-1.31819 z m 37.80513,-0.0452 c 2.32931,-1.36387 3.74318,-3.29707 4.12296,-5.63739 0.25086,-1.54584 -0.0327,-2.37405 -1.62033,-4.73332 l -1.92439,-2.85962 1.3378,-2.28276 c 1.54461,-2.63569 1.66178,-4.03187 0.52314,-6.23376 -1.35712,-2.62437 -3.51659,-3.34606 -10.86592,-3.63133 l -6.57871,-0.25537 v 13.56328 13.56327 l 6.60325,-0.21983 c 5.31743,-0.17703 6.95354,-0.42494 8.4022,-1.27317 z M 180.65944,625.34435 c 8.64244,-0.69302 13.86291,-1.9632 19.71934,-4.79788 15.92028,-7.70585 22.70079,-22.129 17.60572,-37.44996 -3.28613,-9.88145 -9.62356,-14.66654 -30.55593,-23.07135 -10.15294,-4.07663 -13.25555,-5.93215 -15.05586,-9.00415 -2.3997,-4.09476 -1.49765,-8.12084 2.46215,-10.9893 3.16206,-2.29059 6.56617,-2.91196 14.13607,-2.58033 7.76778,0.34031 14.97581,2.0525 20.63201,4.90092 2.11344,1.06431 3.9741,1.93511 4.13482,1.93511 0.1607,0 0.22715,-5.37041 0.14766,-11.93423 l -0.14453,-11.93424 -4.56482,-1.1668 c -6.50319,-1.66227 -17.45006,-2.54622 -27.60875,-2.22939 -7.90707,0.24661 -9.07476,0.4154 -13.74313,1.98664 -19.30738,6.49828 -26.54144,16.76697 -24.75248,35.13593 0.6571,6.74698 2.2447,10.17213 6.75676,14.57729 5.01973,4.9008 10.50798,7.79586 26.58832,14.02537 7.62072,2.95226 12.57092,6.05247 14.03583,8.79034 2.66194,4.97511 -0.27474,10.6021 -6.45414,12.36679 -10.2432,2.92522 -22.22275,1.19672 -35.37338,-5.10395 l -6.04167,-2.89466 v 12.52165 12.52165 l 6.04167,1.64323 c 12.23104,3.32664 18.32869,3.85034 32.03434,2.75132 z m 88.93334,-0.0146 c 9.29233,-1.12336 12.98167,-3.00504 20.8102,-10.6139 l 4.69907,-4.56722 v 6.54163 6.54164 h 14.01175 14.01174 l -0.3544,-30.20836 c -0.44518,-37.94738 -0.85682,-46.05472 -2.62031,-51.60799 -1.80534,-5.68503 -5.00738,-10.84266 -9.11992,-14.68975 -4.21548,-3.94337 -7.85572,-6.08248 -13.51219,-7.94015 -11.86455,-3.89651 -35.53681,-1.85519 -51.82411,4.46891 l -4.02778,1.56393 -0.14472,11.95506 -0.14473,11.95506 1.2188,-0.90093 c 2.069,-1.52937 13.91519,-7.10849 17.59844,-8.2882 5.6011,-1.794 10.3706,-2.38643 16.84103,-2.09186 9.31999,0.42429 13.42709,2.49371 16.20081,8.16298 1.55545,3.17924 2.41158,9.01672 1.4129,9.63393 -0.32368,0.20005 -4.6649,0.95556 -9.64717,1.67892 -10.53856,1.53006 -25.3825,4.19815 -29.89378,5.37319 -11.32517,2.94983 -21.3393,13.42176 -22.85335,23.89809 -0.6698,4.6346 -0.64645,12.3307 0.0505,16.62619 1.57043,9.67977 10.56149,19.12148 20.63911,21.6736 5.94748,1.50618 9.58753,1.6888 16.64816,0.83523 z m 305.8428,-0.52116 c 6.47992,-1.36357 15.44012,-7.55516 19.76822,-13.66004 l 1.14221,-1.61111 0.017,6.84723 0.017,6.84723 h 13.91562 13.91562 l -0.21824,-13.5602 c -0.12003,-7.4581 -0.33732,-23.95187 -0.48286,-36.6528 -0.14555,-12.70094 -0.47981,-24.67448 -0.74282,-26.60787 -1.41723,-10.41841 -8.79331,-20.7864 -17.87996,-25.1325 -7.10674,-3.39911 -11.25872,-4.11372 -23.81293,-4.09849 -14.34321,0.0174 -23.39412,1.74123 -34.52521,6.57568 l -4.57275,1.98604 0.34109,10.96464 c 0.18761,6.03055 0.48149,11.10503 0.65308,11.27663 0.1716,0.17159 1.08181,-0.14165 2.0227,-0.69608 12.07155,-7.1134 21.1359,-9.98104 31.54917,-9.98104 6.09227,0 9.35932,0.72122 12.92851,2.85404 2.38259,1.42375 3.16887,2.30765 4.62899,5.20367 1.14525,2.2715 1.87489,4.64435 2.09137,6.80139 l 0.33249,3.31279 -2.62287,0.33734 c -10.78062,1.38654 -27.80338,4.26946 -35.38214,5.99219 -11.604,2.63772 -20.79462,10.61732 -24.04681,20.87824 -1.01739,3.20993 -1.19168,4.97565 -1.19272,12.08334 -0.001,9.71386 0.5928,12.13827 4.37004,17.82921 4.43297,6.6789 12.54936,11.60102 21.40653,12.98183 2.58802,0.40346 13.16334,-0.0946 16.37964,-0.77136 z m -198.62811,-6.00725 c 0.0417,-2.43681 0.2229,-13.57294 0.40278,-24.74695 l 0.32704,-20.3164 17.72224,24.7368 17.72223,24.7368 17.31946,0.0102 c 10.92317,0.006 17.31946,-0.18362 17.31946,-0.51453 0,-0.68141 -5.90857,-8.39656 -24.76091,-32.33173 -8.44951,-10.72761 -15.6846,-20.02827 -16.07797,-20.66812 -0.9847,-1.6017 -1.06361,-1.49353 20.08327,-27.52818 9.93873,-12.2359 18.07042,-22.40919 18.07042,-22.6073 0,-0.53037 -11.60519,-1.06229 -23.17692,-1.06229 -8.98408,0 -10.22484,0.10703 -11.05922,0.95399 -0.51689,0.5247 -8.18982,11.05603 -17.05093,23.40296 l -16.11113,22.44897 -0.32646,-40.99093 c -0.17955,-22.54502 -0.3608,-44.31386 -0.40277,-48.3752 l -0.0763,-7.38427 h -14.23149 -14.23149 v 77.33339 77.33339 h 14.23149 14.23149 z m 112.91318,3.58108 c 0.17929,-0.46722 0.33517,-11.04014 0.34641,-23.49539 0.0112,-12.45525 0.23343,-26.49259 0.49377,-31.19409 0.47228,-8.52926 0.4782,-8.55803 2.67467,-12.99068 2.46255,-4.96963 5.61469,-8.46331 9.28174,-10.28741 5.40321,-2.68773 12.89892,-2.8548 19.33829,-0.43103 l 3.48928,1.31336 0.34166,-3.26886 c 0.52504,-5.02328 0.4054,-17.12512 -0.20125,-20.35745 -0.78675,-4.19191 -1.18177,-4.36421 -9.39228,-4.09657 -5.55405,0.18105 -7.61166,0.47208 -10.06365,1.42342 -6.02045,2.33584 -10.12167,6.08026 -14.21918,12.98212 l -1.72726,2.9094 -0.0181,-8.18982 -0.0181,-8.18982 H 475.2781 460.50957 v 52.36115 52.36115 h 14.44256 c 12.6743,0 14.48246,-0.10401 14.76852,-0.84948 z M 262.26548,501.52933 c 1.7681,-0.21753 2.92666,-0.82916 4.74434,-2.50463 3.68844,-3.39989 4.60651,-5.62796 4.37943,-10.62849 -0.16369,-3.60432 -0.41019,-4.48579 -1.81659,-6.496 -0.9923,-1.41834 -2.7726,-2.95442 -4.5628,-3.93692 -2.62706,-1.44178 -3.41539,-1.6087 -7.50043,-1.5882 -3.29638,0.0165 -5.05872,0.28614 -6.34227,0.9702 -2.42376,1.29173 -5.91378,4.51386 -6.84991,6.32412 -1.06984,2.06885 -1.01129,8.66177 0.0977,10.99873 1.05307,2.21919 6.19123,7.02779 7.86121,7.357 1.23629,0.24371 5.8328,0.0156 9.98935,-0.49581 z m 46.14172,-0.42234 c 1.87669,-0.98506 5.14211,-4.42052 6.17404,-6.49554 3.34543,-6.72703 -9.5e-4,-14.64081 -7.35434,-17.39206 -5.72959,-2.14372 -12.2044,-0.91899 -15.98109,3.02285 -2.83417,2.95812 -3.66228,4.96189 -3.66228,8.86166 0,8.13785 6.96217,13.7068 16.25885,13.00525 1.70579,-0.12873 3.75995,-0.5797 4.56482,-1.00216 z"
       id="path19"
       transform="scale(0.26458333)" /></g></svg>
